<svg width="32" height="32" viewBox="0 0 32 32" fill="none" xmlns="http://www.w3.org/2000/svg">
<g clip-path="url(#clip0_1510_3081)">
<path d="M26.3964 5.85781C26.852 6.11662 27.378 6.26531 27.9384 6.26531C29.6658 6.26531 31.0711 4.86 31.0711 3.13269C31.0711 1.40531 29.6658 0 27.9384 0C26.2111 0 24.8058 1.40531 24.8058 3.13269C24.8058 3.61381 24.9151 4.06981 25.1097 4.47756L21.7282 7.0385C21.2284 6.70087 20.6264 6.50356 19.9791 6.50356C19.3474 6.50356 18.7592 6.69212 18.2667 7.015L14.9513 4.30231C15.0809 3.959 15.1524 3.58744 15.1524 3.19931C15.1524 1.472 13.747 0.0666875 12.0197 0.0666875C10.2924 0.0666875 8.88711 1.472 8.88711 3.19931C8.88711 3.63713 8.97773 4.05413 9.14067 4.43294L4.80967 8.98913C4.56942 8.92994 4.31861 8.89787 4.06036 8.89787C2.33305 8.89787 0.927734 10.3032 0.927734 12.0305C0.927734 13.7578 2.33305 15.1631 4.06036 15.1631C5.78767 15.1631 7.19298 13.7578 7.19298 12.0305C7.19298 11.2552 6.90924 10.5453 6.44092 9.99769L10.3721 5.86212C10.8511 6.15963 11.4155 6.332 12.0197 6.332C12.6775 6.332 13.2883 6.12775 13.7929 5.78L17.0744 8.465C16.9279 8.82706 16.8464 9.22219 16.8464 9.63619C16.8464 11.3635 18.2517 12.7688 19.979 12.7688C21.7064 12.7688 23.1117 11.3635 23.1117 9.63619C23.1117 9.23769 23.0361 8.85675 22.8998 8.50587L26.3964 5.85781ZM27.9384 1.87713C28.6307 1.87713 29.194 2.44031 29.194 3.13269C29.194 3.82494 28.6308 4.38812 27.9384 4.38812C27.2462 4.38812 26.6829 3.82494 26.6829 3.13269C26.683 2.44038 27.2462 1.87713 27.9384 1.87713ZM4.06036 13.286C3.36811 13.286 2.80486 12.7228 2.80486 12.0305C2.80486 11.3382 3.36805 10.775 4.06036 10.775C4.75261 10.775 5.31586 11.3382 5.31586 12.0305C5.31586 12.7228 4.75261 13.286 4.06036 13.286ZM12.0197 4.45481C11.3275 4.45481 10.7642 3.89162 10.7642 3.19931C10.7642 2.507 11.3274 1.94387 12.0197 1.94387C12.712 1.94387 13.2752 2.50706 13.2752 3.19931C13.2752 3.89156 12.712 4.45481 12.0197 4.45481ZM19.9791 10.8916C19.2869 10.8916 18.7236 10.3284 18.7236 9.63612C18.7236 8.94387 19.2868 8.38062 19.9791 8.38062C20.6714 8.38062 21.2346 8.94381 21.2346 9.63612C21.2346 10.3284 20.6714 10.8916 19.9791 10.8916Z" fill="white"/>
<path d="M27.8842 12.1021C26.1959 12.1021 24.8223 13.4757 24.8223 15.164V31.9999H30.9462V15.164C30.9462 13.4757 29.5726 12.1021 27.8842 12.1021ZM29.069 30.1227H26.6994V15.164C26.6994 14.5107 27.2309 13.9792 27.8841 13.9792C28.5375 13.9792 29.069 14.5107 29.069 15.164L29.069 30.1227Z" fill="white"/>
<path d="M19.9799 19.7715C18.2916 19.7715 16.918 21.145 16.918 22.8335V32H23.0419V22.8334C23.0419 21.145 21.6683 19.7715 19.9799 19.7715ZM21.1647 30.1229H18.7951V22.8334C18.7951 22.1801 19.3266 21.6486 19.9798 21.6486C20.6332 21.6486 21.1647 22.1801 21.1647 22.8334L21.1647 30.1229Z" fill="white"/>
<path d="M11.9702 14.6052C10.2818 14.6052 8.9082 15.9788 8.9082 17.6672V32.0001H15.0322V17.6672C15.0322 15.9788 13.6586 14.6052 11.9702 14.6052ZM13.1551 30.1229H10.7854V17.6672C10.7854 17.0139 11.3169 16.4824 11.9702 16.4824C12.6235 16.4824 13.155 17.0139 13.155 17.6672V30.1229H13.1551Z" fill="white"/>
<path d="M4.06591 22.583C2.37753 22.583 1.00391 23.9566 1.00391 25.6449V32.0001H7.12784V25.6449C7.12784 23.9566 5.75422 22.583 4.06591 22.583ZM5.25066 30.1229H2.88109V25.6449C2.88109 24.9916 3.41259 24.4601 4.06591 24.4601C4.71916 24.4601 5.25066 24.9916 5.25066 25.6449V30.1229Z" fill="white"/>
</g>
<defs>
<clipPath id="clip0_1510_3081">
<rect width="32" height="32" fill="white"/>
</clipPath>
</defs>
</svg>
