<svg width="28" height="28" viewBox="0 0 28 28" fill="none" xmlns="http://www.w3.org/2000/svg">
<path opacity="0.969" fill-rule="evenodd" clip-rule="evenodd" d="M6.58985 1.66797C11.5118 1.65885 16.4337 1.66797 21.3555 1.69531C22.7951 1.89505 23.7886 2.66979 24.3359 4.01953C25.0216 5.56369 25.6687 7.12228 26.2773 8.69531C26.235 9.26827 26.2076 9.84249 26.1953 10.418C25.8879 11.9103 24.9855 12.7945 23.4883 13.0703C22.4493 13.1888 21.556 12.888 20.8086 12.168C19.7629 13.1019 18.5779 13.3298 17.2539 12.8516C16.8862 12.6657 16.549 12.4379 16.2422 12.168C14.7225 13.4067 13.2004 13.4067 11.6758 12.168C10.4723 13.2227 9.15978 13.3777 7.73828 12.6328C7.53774 12.4779 7.33726 12.3229 7.13672 12.168C6.61527 12.6656 5.9955 12.9573 5.27735 13.043C5.26823 16.4883 5.27735 19.9336 5.30469 23.3789C5.46558 23.9227 5.82105 24.2599 6.3711 24.3906C9.85288 24.4088 13.3346 24.4271 16.8164 24.4453C17.3622 24.6526 17.5718 25.0445 17.4453 25.6211C17.3219 25.9086 17.1123 26.1 16.8164 26.1953C13.2799 26.2318 9.74351 26.2318 6.20703 26.1953C4.70932 25.919 3.80698 25.0348 3.5 23.543C3.48177 19.9518 3.46354 16.3607 3.44531 12.7695C2.41418 12.221 1.83084 11.3642 1.69531 10.1992C1.65885 9.65234 1.65885 9.10547 1.69531 8.55859C2.33007 6.98261 2.98632 5.41491 3.66406 3.85547C4.24409 2.59117 5.21935 1.862 6.58985 1.66797ZM6.69922 3.47266C11.5482 3.46354 16.3972 3.47266 21.2461 3.5C21.7731 3.61309 22.1832 3.89564 22.4766 4.34766C22.9708 5.49101 23.4721 6.63037 23.9805 7.76563C17.3086 7.8021 10.6367 7.8021 3.96485 7.76563C4.46898 6.65449 4.95206 5.53339 5.41406 4.40234C5.71359 3.91102 6.14195 3.60112 6.69922 3.47266ZM3.47266 9.59766C4.38412 9.59766 5.29557 9.59766 6.20703 9.59766C6.29814 10.5909 5.85151 11.156 4.86719 11.293C3.90092 11.155 3.43608 10.59 3.47266 9.59766ZM8.01172 9.59766C8.94141 9.59766 9.8711 9.59766 10.8008 9.59766C10.8313 10.771 10.2662 11.3269 9.10547 11.2656C8.31031 10.9979 7.94571 10.4419 8.01172 9.59766ZM12.6055 9.59766C13.5169 9.59766 14.4284 9.59766 15.3398 9.59766C15.3513 10.8717 14.7316 11.4094 13.4805 11.2109C12.8109 10.8839 12.5193 10.3461 12.6055 9.59766ZM17.1445 9.59766C18.056 9.59766 18.9674 9.59766 19.8789 9.59766C19.891 10.871 19.2712 11.4088 18.0195 11.2109C17.3503 10.8846 17.0586 10.3468 17.1445 9.59766ZM21.6836 9.59766C22.5951 9.59766 23.5065 9.59766 24.418 9.59766C24.4108 10.9452 23.7545 11.4647 22.4492 11.1563C21.8563 10.8112 21.6011 10.2917 21.6836 9.59766Z" fill="white"/>
<path opacity="0.964" fill-rule="evenodd" clip-rule="evenodd" d="M21.1914 14.3555C23.3729 14.3655 24.9315 15.3499 25.8672 17.3086C26.3506 18.7158 26.3323 20.1194 25.8125 21.5195C24.9977 23.3939 23.749 24.916 22.0664 26.0859C21.6836 26.3412 21.3008 26.3412 20.918 26.0859C19.1838 24.8808 17.9168 23.304 17.1172 21.3555C16.4384 19.4721 16.6754 17.7221 17.8281 16.1055C18.7236 15.079 19.8447 14.4957 21.1914 14.3555ZM21.3008 16.1602C22.9849 16.2311 24.0149 17.0879 24.3906 18.7305C24.4913 19.7679 24.2726 20.734 23.7344 21.6289C23.1228 22.587 22.3753 23.4255 21.4922 24.1445C20.5667 23.4018 19.801 22.5268 19.1953 21.5195C18.5989 20.4885 18.4348 19.3948 18.7031 18.2383C19.1605 17.0235 20.0263 16.3308 21.3008 16.1602Z" fill="white"/>
<path opacity="0.97" fill-rule="evenodd" clip-rule="evenodd" d="M7.6289 15.668C9.5066 15.6588 11.3842 15.668 13.2617 15.6953C13.5576 15.7906 13.7672 15.982 13.8906 16.2695C13.9271 17.9284 13.9271 19.5873 13.8906 21.2461C13.7918 21.5272 13.6004 21.7187 13.3164 21.8203C11.4023 21.8568 9.48828 21.8568 7.57422 21.8203C7.20677 21.7081 6.99715 21.462 6.94531 21.082C6.90883 19.5326 6.90883 17.9831 6.94531 16.4336C7.0129 16.0291 7.24079 15.7739 7.6289 15.668ZM8.72265 17.4727C9.85288 17.4727 10.9831 17.4727 12.1133 17.4727C12.1133 18.3295 12.1133 19.1862 12.1133 20.043C10.9831 20.043 9.85288 20.043 8.72265 20.043C8.72265 19.1862 8.72265 18.3295 8.72265 17.4727Z" fill="white"/>
<path opacity="0.949" fill-rule="evenodd" clip-rule="evenodd" d="M21.192 17.9104C22.3903 17.8963 22.8916 18.4797 22.6959 19.6604C22.3002 20.4487 21.6895 20.6766 20.8639 20.344C20.2255 19.8594 20.0706 19.2487 20.3991 18.512C20.5912 18.2113 20.8556 18.0109 21.192 17.9104Z" fill="white"/>
</svg>
