<svg width="32" height="32" viewBox="0 0 32 32" fill="none" xmlns="http://www.w3.org/2000/svg">
<path d="M6.25 7.0625C6.25 6.37207 6.80957 5.8125 7.5 5.8125H24.5C25.1904 5.8125 25.75 6.37207 25.75 7.0625C25.75 7.75293 25.1904 8.3125 24.5 8.3125H7.5C6.80957 8.3125 6.25 7.75293 6.25 7.0625ZM25.75 12.0625C25.75 11.3721 25.1904 10.8125 24.5 10.8125H7.5C6.80957 10.8125 6.25 11.3721 6.25 12.0625C6.25 12.7529 6.80957 13.3125 7.5 13.3125H24.5C25.1904 13.3125 25.75 12.7529 25.75 12.0625ZM7.5 15.8125C6.80957 15.8125 6.25 16.3721 6.25 17.0625C6.25 17.7529 6.80957 18.3125 7.5 18.3125H13.25C13.9404 18.3125 14.5 17.7529 14.5 17.0625C14.5 16.3721 13.9404 15.8125 13.25 15.8125H7.5ZM30.9026 25.5994C32.3638 27.0605 32.3638 29.4395 30.9016 30.9016C30.1707 31.6326 29.2102 31.9983 28.25 31.9983C27.2898 31.9983 26.3293 31.6326 25.5984 30.9016L18.7629 24.0535C18.6106 23.9009 18.5005 23.7117 18.4431 23.5039L17.0454 18.4587C16.9238 18.0193 17.0508 17.5486 17.3772 17.2302C17.7034 16.9121 18.177 16.7964 18.6133 16.929L23.5337 18.4236C23.7307 18.4834 23.9099 18.5908 24.0552 18.7366L30.9026 25.5994ZM20.7644 22.5198L25.3591 27.123L27.1272 25.355L22.5068 20.7244L20.0613 19.9814L20.7644 22.5198ZM29.1338 27.3662L28.8931 27.1248L27.1252 28.8926L27.3669 29.1348C27.8535 29.6213 28.6465 29.6213 29.1338 29.1338C29.6213 28.6465 29.6213 27.8535 29.1338 27.3662ZM27 0H5C2.24292 0 0 2.24292 0 5V27C0 29.7571 2.24292 32 5 32H20.3125C21.0029 32 21.5625 31.4404 21.5625 30.75C21.5625 30.0596 21.0029 29.5 20.3125 29.5H5C3.62158 29.5 2.5 28.3784 2.5 27V5C2.5 3.62158 3.62158 2.5 5 2.5H27C28.3784 2.5 29.5 3.62158 29.5 5V20.375C29.5 21.0654 30.0596 21.625 30.75 21.625C31.4404 21.625 32 21.0654 32 20.375V5C32 2.24292 29.7571 0 27 0Z" fill="white"/>
</svg>
