<svg width="243" height="62" viewBox="0 0 243 62" fill="none" xmlns="http://www.w3.org/2000/svg">
<g clip-path="url(#clip0_212_195)">
<path d="M47.2264 24.5899L26.9208 36.2769V43.8421L53.7691 28.3585L53.7645 15.54L27.1118 0.137695L20.3199 3.79483L47.2264 19.3969V24.5922V24.5899Z" fill="#F79533"/>
<path d="M17.9423 5.25391L0 15.5655L0.158328 46.5652L6.94083 50.4291V19.5456L24.7784 9.30836L17.9423 5.25391Z" fill="#F79533"/>
<path d="M35.9591 15.5728L18.0285 25.9819L17.9935 56.8979L24.7784 60.7549V29.869L42.6182 19.5436L35.9591 15.5728Z" fill="#F79533"/>
<path d="M33.6985 14.2065C31.3888 13.0633 29.2537 11.4811 26.9044 10.4634C20.9811 13.9253 14.9017 17.1433 9.10877 20.8214L9.07617 51.7281L15.8587 55.5921V24.7085C21.619 21.2117 27.5331 17.9705 33.3446 14.5596C33.5332 14.4481 33.78 14.5806 33.6985 14.2088V14.2065Z" fill="white"/>
<path d="M53.8206 36.3117C53.7741 36.1235 53.6297 36.0376 53.4924 35.926C53.1757 35.6658 50.1116 33.9186 49.739 33.7884C49.5435 33.7211 49.3828 33.6397 49.1686 33.7211C47.2943 34.8317 45.3687 35.8586 43.513 36.9971C43.1358 37.2295 42.3814 37.2411 43.0241 37.6547C43.6341 38.0474 46.9939 39.6389 47.1662 39.9247C47.3618 40.2454 47.3315 42.5526 47.0731 42.8616L26.9188 54.6113V61.9976L53.7392 46.7069L53.8672 46.4281L53.8183 36.3094L53.8206 36.3117Z" fill="#F79533"/>
</g>
<path d="M62.2336 28.8491V15.3283H72.6747C73.1379 15.3283 73.5573 15.4409 73.9329 15.6663C74.321 15.8916 74.6277 16.1983 74.853 16.5864C75.0909 16.9745 75.2098 17.4002 75.2098 17.8634V20.5488C75.2098 20.7241 75.1911 20.8931 75.1535 21.0558C75.1285 21.2061 75.0847 21.35 75.0221 21.4878C75.2474 21.8007 75.4227 22.1137 75.5479 22.4267C75.6856 22.7272 75.7544 23.0339 75.7544 23.3469V26.314C75.7544 26.7772 75.6355 27.2028 75.3976 27.5909C75.1723 27.979 74.8656 28.2858 74.4775 28.5111C74.1019 28.7364 73.6825 28.8491 73.2193 28.8491H62.2336ZM64.8251 26.5769H73.1442C73.2318 26.5769 73.3069 26.5456 73.3695 26.483C73.4446 26.4204 73.4822 26.339 73.4822 26.2388V23.4408C73.4822 23.3406 73.4446 23.2592 73.3695 23.1966C73.3069 23.1341 73.2318 23.1028 73.1442 23.1028H64.8251C64.7374 23.1028 64.6561 23.1341 64.5809 23.1966C64.5183 23.2592 64.487 23.3406 64.487 23.4408V26.2388C64.487 26.339 64.5183 26.4204 64.5809 26.483C64.6561 26.5456 64.7374 26.5769 64.8251 26.5769ZM64.8251 20.8305H72.5808C72.6809 20.8305 72.7623 20.7992 72.8249 20.7366C72.8875 20.6615 72.9188 20.5801 72.9188 20.4925V17.9385C72.9188 17.8384 72.8875 17.757 72.8249 17.6944C72.7623 17.6318 72.6809 17.6005 72.5808 17.6005H64.8251C64.7374 17.6005 64.6561 17.6318 64.5809 17.6944C64.5183 17.757 64.487 17.8384 64.487 17.9385V20.4925C64.487 20.5801 64.5183 20.6615 64.5809 20.7366C64.6561 20.7992 64.7374 20.8305 64.8251 20.8305ZM77.6517 28.8491V15.3283H79.8864V28.8491H77.6517ZM81.7242 28.8491V26.2952L92.0715 17.6005H81.7242V15.3283H95.2451V17.8822L84.8979 26.5769H95.2451V28.8491H81.7242ZM102.199 28.8491V17.6005H96.5651V15.3283H110.086V17.6005H104.452V28.8491H102.199ZM111.528 28.8491V15.3283H123.941V17.6005H113.8V20.9619H121.969V23.2154H113.8V26.5769H123.941V28.8491H111.528ZM128.403 28.8491C127.94 28.8491 127.514 28.7364 127.126 28.5111C126.738 28.2858 126.431 27.979 126.206 27.5909C125.981 27.2028 125.868 26.7772 125.868 26.314V17.8634C125.868 17.4002 125.981 16.9745 126.206 16.5864C126.431 16.1983 126.738 15.8916 127.126 15.6663C127.514 15.4409 127.94 15.3283 128.403 15.3283H139.351V17.6005H128.798C128.597 17.6005 128.435 17.6631 128.309 17.7883C128.184 17.901 128.122 18.0575 128.122 18.2578V25.9196C128.122 26.1199 128.184 26.2827 128.309 26.4079C128.435 26.5205 128.597 26.5769 128.798 26.5769H139.351V28.8491H128.403ZM141.328 28.8491V15.3283H143.582V20.9619H152.896V15.3283H155.149V28.8491H152.896V23.2154H143.582V28.8491H141.328ZM157.282 28.8491V15.3283H159.855L168.531 25.6567V15.3283H170.803V28.8491H168.231L159.536 18.5019V28.8491H157.282ZM175.405 28.8491C174.942 28.8491 174.516 28.7364 174.128 28.5111C173.74 28.2858 173.433 27.979 173.208 27.5909C172.982 27.2028 172.87 26.7772 172.87 26.314V17.8634C172.87 17.4002 172.982 16.9745 173.208 16.5864C173.433 16.1983 173.74 15.8916 174.128 15.6663C174.516 15.4409 174.942 15.3283 175.405 15.3283H183.855C184.319 15.3283 184.738 15.4409 185.114 15.6663C185.502 15.8916 185.808 16.1983 186.034 16.5864C186.272 16.9745 186.39 17.4002 186.39 17.8634V26.314C186.39 26.7772 186.272 27.2028 186.034 27.5909C185.808 27.979 185.502 28.2858 185.114 28.5111C184.738 28.7364 184.319 28.8491 183.855 28.8491H175.405ZM175.461 26.5769H183.78C183.868 26.5769 183.943 26.5456 184.006 26.483C184.081 26.4204 184.118 26.339 184.118 26.2388V17.9385C184.118 17.8384 184.081 17.757 184.006 17.6944C183.943 17.6318 183.868 17.6005 183.78 17.6005H175.461C175.373 17.6005 175.292 17.6318 175.217 17.6944C175.154 17.757 175.123 17.8384 175.123 17.9385V26.2388C175.123 26.339 175.154 26.4204 175.217 26.483C175.292 26.5456 175.373 26.5769 175.461 26.5769ZM190.919 28.8491C190.455 28.8491 190.03 28.7364 189.642 28.5111C189.266 28.2858 188.966 27.979 188.74 27.5909C188.515 27.2028 188.402 26.7772 188.402 26.314V25.4126H190.656V26.2388C190.656 26.339 190.687 26.4204 190.75 26.483C190.812 26.5456 190.894 26.5769 190.994 26.5769H199.294C199.394 26.5769 199.476 26.5456 199.538 26.483C199.613 26.4204 199.651 26.339 199.651 26.2388V23.5534C199.651 23.4658 199.613 23.3907 199.538 23.3281C199.476 23.253 199.394 23.2154 199.294 23.2154H190.919C190.455 23.2154 190.03 23.1028 189.642 22.8774C189.266 22.6521 188.966 22.3516 188.74 21.976C188.515 21.5879 188.402 21.1623 188.402 20.699V17.8634C188.402 17.4002 188.515 16.9745 188.74 16.5864C188.966 16.1983 189.266 15.8916 189.642 15.6663C190.03 15.4409 190.455 15.3283 190.919 15.3283H199.388C199.851 15.3283 200.271 15.4409 200.646 15.6663C201.034 15.8916 201.341 16.1983 201.566 16.5864C201.804 16.9745 201.923 17.4002 201.923 17.8634V18.7648H199.651V17.9385C199.651 17.8384 199.613 17.757 199.538 17.6944C199.476 17.6318 199.394 17.6005 199.294 17.6005H190.994C190.894 17.6005 190.812 17.6318 190.75 17.6944C190.687 17.757 190.656 17.8384 190.656 17.9385V20.6239C190.656 20.7116 190.687 20.7929 190.75 20.8681C190.812 20.9307 190.894 20.9619 190.994 20.9619H199.388C199.851 20.9619 200.271 21.0746 200.646 21.3C201.034 21.5253 201.341 21.832 201.566 22.2201C201.804 22.5957 201.923 23.0151 201.923 23.4783V26.314C201.923 26.7772 201.804 27.2028 201.566 27.5909C201.341 27.979 201.034 28.2858 200.646 28.5111C200.271 28.7364 199.851 28.8491 199.388 28.8491H190.919ZM209.234 28.8491V23.7788L202.999 15.3283H205.666L210.379 21.2624L215.055 15.3283H217.76L211.506 23.7976V28.8491H209.234ZM221.141 28.8491C220.678 28.8491 220.252 28.7364 219.864 28.5111C219.488 28.2858 219.188 27.979 218.963 27.5909C218.737 27.2028 218.625 26.7772 218.625 26.314V25.4126H220.878V26.2388C220.878 26.339 220.909 26.4204 220.972 26.483C221.035 26.5456 221.116 26.5769 221.216 26.5769H229.516C229.617 26.5769 229.698 26.5456 229.761 26.483C229.836 26.4204 229.873 26.339 229.873 26.2388V23.5534C229.873 23.4658 229.836 23.3907 229.761 23.3281C229.698 23.253 229.617 23.2154 229.516 23.2154H221.141C220.678 23.2154 220.252 23.1028 219.864 22.8774C219.488 22.6521 219.188 22.3516 218.963 21.976C218.737 21.5879 218.625 21.1623 218.625 20.699V17.8634C218.625 17.4002 218.737 16.9745 218.963 16.5864C219.188 16.1983 219.488 15.8916 219.864 15.6663C220.252 15.4409 220.678 15.3283 221.141 15.3283H229.61C230.074 15.3283 230.493 15.4409 230.868 15.6663C231.257 15.8916 231.563 16.1983 231.789 16.5864C232.027 16.9745 232.145 17.4002 232.145 17.8634V18.7648H229.873V17.9385C229.873 17.8384 229.836 17.757 229.761 17.6944C229.698 17.6318 229.617 17.6005 229.516 17.6005H221.216C221.116 17.6005 221.035 17.6318 220.972 17.6944C220.909 17.757 220.878 17.8384 220.878 17.9385V20.6239C220.878 20.7116 220.909 20.7929 220.972 20.8681C221.035 20.9307 221.116 20.9619 221.216 20.9619H229.61C230.074 20.9619 230.493 21.0746 230.868 21.3C231.257 21.5253 231.563 21.832 231.789 22.2201C232.027 22.5957 232.145 23.0151 232.145 23.4783V26.314C232.145 26.7772 232.027 27.2028 231.789 27.5909C231.563 27.979 231.257 28.2858 230.868 28.5111C230.493 28.7364 230.074 28.8491 229.61 28.8491H221.141Z" fill="white"/>
<path d="M64.2154 42.5202H67.2676V43.4587H64.2154V42.5202ZM64.3031 45.1514H67.7675V46.1074H63.1629V39.968H67.6447V40.924H64.3031V45.1514ZM69.0386 46.1074V39.968H69.977L72.6608 44.4498H72.1697L74.8096 39.968H75.7481L75.7568 46.1074H74.6781L74.6693 41.6607H74.8973L72.652 45.4058H72.1434L69.863 41.6607H70.1261V46.1074H69.0386ZM77.4152 46.1074V39.968H79.9411C80.4849 39.968 80.9497 40.0557 81.3356 40.2311C81.7274 40.4065 82.0285 40.658 82.239 40.9854C82.4495 41.3128 82.5547 41.7017 82.5547 42.1519C82.5547 42.6021 82.4495 42.9909 82.239 43.3184C82.0285 43.6458 81.7274 43.8972 81.3356 44.0726C80.9497 44.2481 80.4849 44.3358 79.9411 44.3358H78.0467L78.5554 43.8008V46.1074H77.4152ZM78.5554 43.9235L78.0467 43.371H79.8885C80.3913 43.371 80.7685 43.2657 81.0199 43.0553C81.2772 42.8389 81.4058 42.5378 81.4058 42.1519C81.4058 41.7601 81.2772 41.459 81.0199 41.2485C80.7685 41.038 80.3913 40.9328 79.8885 40.9328H78.0467L78.5554 40.3714V43.9235ZM86.6558 46.1951C86.1763 46.1951 85.7348 46.1162 85.3314 45.9583C84.9279 45.8005 84.5771 45.5812 84.2789 45.3005C83.9807 45.014 83.7498 44.6807 83.586 44.3007C83.4223 43.9148 83.3405 43.4938 83.3405 43.0377C83.3405 42.5816 83.4223 42.1636 83.586 41.7835C83.7498 41.3976 83.9807 41.0643 84.2789 40.7837C84.5771 40.4972 84.9279 40.275 85.3314 40.1171C85.7348 39.9592 86.1734 39.8803 86.647 39.8803C87.1264 39.8803 87.565 39.9592 87.9626 40.1171C88.366 40.275 88.7168 40.4972 89.015 40.7837C89.3133 41.0643 89.5442 41.3976 89.7079 41.7835C89.8716 42.1636 89.9535 42.5816 89.9535 43.0377C89.9535 43.4938 89.8716 43.9148 89.7079 44.3007C89.5442 44.6866 89.3133 45.0199 89.015 45.3005C88.7168 45.5812 88.366 45.8005 87.9626 45.9583C87.565 46.1162 87.1294 46.1951 86.6558 46.1951ZM86.647 45.1953C86.9569 45.1953 87.2434 45.1427 87.5065 45.0374C87.7696 44.9322 87.9977 44.7831 88.1906 44.5901C88.3836 44.3913 88.5327 44.1633 88.6379 43.906C88.749 43.6429 88.8046 43.3535 88.8046 43.0377C88.8046 42.722 88.749 42.4355 88.6379 42.1782C88.5327 41.9151 88.3836 41.687 88.1906 41.4941C87.9977 41.2953 87.7696 41.1433 87.5065 41.038C87.2434 40.9328 86.9569 40.8801 86.647 40.8801C86.3371 40.8801 86.0506 40.9328 85.7875 41.038C85.5302 41.1433 85.3022 41.2953 85.1034 41.4941C84.9104 41.687 84.7584 41.9151 84.6473 42.1782C84.542 42.4355 84.4894 42.722 84.4894 43.0377C84.4894 43.3476 84.542 43.6341 84.6473 43.8972C84.7584 44.1603 84.9104 44.3913 85.1034 44.5901C85.2963 44.7831 85.5243 44.9322 85.7875 45.0374C86.0506 45.1427 86.3371 45.1953 86.647 45.1953ZM92.4208 46.1074L90.386 39.968H91.57L93.3856 45.5198H92.7979L94.6836 39.968H95.7361L97.5691 45.5198H96.999L98.8584 39.968H99.946L97.9112 46.1074H96.7008L95.0257 41.0994H95.3414L93.6399 46.1074H92.4208ZM101.927 42.5202H104.979V43.4587H101.927V42.5202ZM102.015 45.1514H105.479V46.1074H100.875V39.968H105.357V40.924H102.015V45.1514ZM106.75 46.1074V39.968H109.276C109.82 39.968 110.285 40.0557 110.671 40.2311C111.063 40.4065 111.364 40.658 111.574 40.9854C111.785 41.3128 111.89 41.7017 111.89 42.1519C111.89 42.6021 111.785 42.9909 111.574 43.3184C111.364 43.64 111.063 43.8885 110.671 44.0639C110.285 44.2334 109.82 44.3182 109.276 44.3182H107.382L107.891 43.8008V46.1074H106.75ZM110.767 46.1074L109.215 43.8797H110.434L111.995 46.1074H110.767ZM107.891 43.9235L107.382 43.3798H109.224C109.727 43.3798 110.104 43.2716 110.355 43.0553C110.612 42.8389 110.741 42.5378 110.741 42.1519C110.741 41.7601 110.612 41.459 110.355 41.2485C110.104 41.038 109.727 40.9328 109.224 40.9328H107.382L107.891 40.3714V43.9235ZM113.166 46.1074V39.968H114.306V46.1074H113.166ZM115.966 46.1074V39.968H116.905L120.755 44.6954H120.29V39.968H121.422V46.1074H120.483L116.633 41.3801H117.098V46.1074H115.966ZM125.935 46.1951C125.455 46.1951 125.014 46.1191 124.61 45.9671C124.213 45.8092 123.865 45.59 123.567 45.3093C123.269 45.0228 123.038 44.6866 122.874 44.3007C122.71 43.9148 122.628 43.4938 122.628 43.0377C122.628 42.5816 122.71 42.1606 122.874 41.7747C123.038 41.3888 123.269 41.0556 123.567 40.7749C123.871 40.4884 124.225 40.2691 124.628 40.1171C125.031 39.9592 125.473 39.8803 125.952 39.8803C126.473 39.8803 126.941 39.9651 127.356 40.1346C127.777 40.3042 128.13 40.5527 128.417 40.8801L127.698 41.5818C127.458 41.3421 127.198 41.1666 126.917 41.0556C126.642 40.9386 126.338 40.8801 126.005 40.8801C125.683 40.8801 125.385 40.9328 125.11 41.038C124.836 41.1433 124.599 41.2924 124.4 41.4853C124.201 41.6783 124.046 41.9063 123.935 42.1694C123.83 42.4325 123.777 42.722 123.777 43.0377C123.777 43.3476 123.83 43.6341 123.935 43.8972C124.046 44.1603 124.201 44.3913 124.4 44.5901C124.599 44.7831 124.833 44.9322 125.102 45.0374C125.371 45.1427 125.669 45.1953 125.996 45.1953C126.3 45.1953 126.593 45.1485 126.873 45.0549C127.16 44.9555 127.432 44.7918 127.689 44.5638L128.338 45.4145C128.016 45.6718 127.642 45.8677 127.215 46.0022C126.794 46.1308 126.368 46.1951 125.935 46.1951ZM127.259 45.2654V42.9675H128.338V45.4145L127.259 45.2654ZM133.774 46.1074V43.678L134.029 44.3796L131.362 39.968H132.581L134.721 43.5201H134.037L136.195 39.968H137.318L134.651 44.3796L134.914 43.678V46.1074H133.774ZM140.675 46.1951C140.196 46.1951 139.755 46.1162 139.351 45.9583C138.948 45.8005 138.597 45.5812 138.299 45.3005C138 45.014 137.769 44.6807 137.606 44.3007C137.442 43.9148 137.36 43.4938 137.36 43.0377C137.36 42.5816 137.442 42.1636 137.606 41.7835C137.769 41.3976 138 41.0643 138.299 40.7837C138.597 40.4972 138.948 40.275 139.351 40.1171C139.755 39.9592 140.193 39.8803 140.667 39.8803C141.146 39.8803 141.585 39.9592 141.982 40.1171C142.386 40.275 142.737 40.4972 143.035 40.7837C143.333 41.0643 143.564 41.3976 143.728 41.7835C143.891 42.1636 143.973 42.5816 143.973 43.0377C143.973 43.4938 143.891 43.9148 143.728 44.3007C143.564 44.6866 143.333 45.0199 143.035 45.3005C142.737 45.5812 142.386 45.8005 141.982 45.9583C141.585 46.1162 141.149 46.1951 140.675 46.1951ZM140.667 45.1953C140.977 45.1953 141.263 45.1427 141.526 45.0374C141.789 44.9322 142.017 44.7831 142.21 44.5901C142.403 44.3913 142.552 44.1633 142.658 43.906C142.769 43.6429 142.824 43.3535 142.824 43.0377C142.824 42.722 142.769 42.4355 142.658 42.1782C142.552 41.9151 142.403 41.687 142.21 41.4941C142.017 41.2953 141.789 41.1433 141.526 41.038C141.263 40.9328 140.977 40.8801 140.667 40.8801C140.357 40.8801 140.07 40.9328 139.807 41.038C139.55 41.1433 139.322 41.2953 139.123 41.4941C138.93 41.687 138.778 41.9151 138.667 42.1782C138.562 42.4355 138.509 42.722 138.509 43.0377C138.509 43.3476 138.562 43.6341 138.667 43.8972C138.778 44.1603 138.93 44.3913 139.123 44.5901C139.316 44.7831 139.544 44.9322 139.807 45.0374C140.07 45.1427 140.357 45.1953 140.667 45.1953ZM147.822 46.1951C146.98 46.1951 146.319 45.9583 145.84 45.4847C145.366 45.0111 145.129 44.327 145.129 43.4324V39.968H146.269V43.3885C146.269 44.02 146.404 44.479 146.673 44.7655C146.948 45.052 147.334 45.1953 147.831 45.1953C148.328 45.1953 148.711 45.052 148.979 44.7655C149.248 44.479 149.383 44.02 149.383 43.3885V39.968H150.506V43.4324C150.506 44.327 150.266 45.0111 149.786 45.4847C149.313 45.9583 148.658 46.1951 147.822 46.1951ZM152.102 46.1074V39.968H154.628C155.172 39.968 155.637 40.0557 156.023 40.2311C156.415 40.4065 156.716 40.658 156.926 40.9854C157.137 41.3128 157.242 41.7017 157.242 42.1519C157.242 42.6021 157.137 42.9909 156.926 43.3184C156.716 43.64 156.415 43.8885 156.023 44.0639C155.637 44.2334 155.172 44.3182 154.628 44.3182H152.734L153.243 43.8008V46.1074H152.102ZM156.119 46.1074L154.567 43.8797H155.786L157.347 46.1074H156.119ZM153.243 43.9235L152.734 43.3798H154.576C155.079 43.3798 155.456 43.2716 155.707 43.0553C155.964 42.8389 156.093 42.5378 156.093 42.1519C156.093 41.7601 155.964 41.459 155.707 41.2485C155.456 41.038 155.079 40.9328 154.576 40.9328H152.734L153.243 40.3714V43.9235ZM160.941 46.1074V39.968H163.625C164.292 39.968 164.877 40.0966 165.379 40.3539C165.882 40.6112 166.274 40.9678 166.555 41.4239C166.835 41.88 166.976 42.4179 166.976 43.0377C166.976 43.6517 166.835 44.1896 166.555 44.6515C166.274 45.1076 165.882 45.4642 165.379 45.7215C164.877 45.9788 164.292 46.1074 163.625 46.1074H160.941ZM162.082 45.1427H163.573C164.035 45.1427 164.432 45.0549 164.765 44.8795C165.105 44.7041 165.365 44.4585 165.546 44.1428C165.733 43.8271 165.827 43.4587 165.827 43.0377C165.827 42.6109 165.733 42.2425 165.546 41.9326C165.365 41.6169 165.105 41.3713 164.765 41.1959C164.432 41.0205 164.035 40.9328 163.573 40.9328H162.082V45.1427ZM168.188 46.1074V39.968H169.328V46.1074H168.188ZM173.856 46.1951C173.377 46.1951 172.935 46.1191 172.532 45.9671C172.134 45.8092 171.786 45.59 171.488 45.3093C171.19 45.0228 170.959 44.6866 170.795 44.3007C170.632 43.9148 170.55 43.4938 170.55 43.0377C170.55 42.5816 170.632 42.1606 170.795 41.7747C170.959 41.3888 171.19 41.0556 171.488 40.7749C171.792 40.4884 172.146 40.2691 172.549 40.1171C172.953 39.9592 173.394 39.8803 173.874 39.8803C174.394 39.8803 174.862 39.9651 175.277 40.1346C175.698 40.3042 176.052 40.5527 176.338 40.8801L175.619 41.5818C175.379 41.3421 175.119 41.1666 174.839 41.0556C174.564 40.9386 174.26 40.8801 173.926 40.8801C173.605 40.8801 173.307 40.9328 173.032 41.038C172.757 41.1433 172.52 41.2924 172.321 41.4853C172.123 41.6783 171.968 41.9063 171.857 42.1694C171.751 42.4325 171.699 42.722 171.699 43.0377C171.699 43.3476 171.751 43.6341 171.857 43.8972C171.968 44.1603 172.123 44.3913 172.321 44.5901C172.52 44.7831 172.754 44.9322 173.023 45.0374C173.292 45.1427 173.59 45.1953 173.918 45.1953C174.222 45.1953 174.514 45.1485 174.795 45.0549C175.081 44.9555 175.353 44.7918 175.61 44.5638L176.259 45.4145C175.938 45.6718 175.564 45.8677 175.137 46.0022C174.716 46.1308 174.289 46.1951 173.856 46.1951ZM175.181 45.2654V42.9675H176.259V45.4145L175.181 45.2654ZM177.763 46.1074V39.968H178.903V46.1074H177.763ZM181.809 46.1074V40.9328H179.775V39.968H184.984V40.9328H182.95V46.1074H181.809ZM184.663 46.1074L187.426 39.968H188.549L191.32 46.1074H190.128L187.751 40.5732H188.207L185.839 46.1074H184.663ZM185.935 44.6866L186.242 43.792H189.557L189.864 44.6866H185.935ZM192.101 46.1074V39.968H193.241V45.1427H196.451V46.1074H192.101ZM200.819 42.7921H203.88V43.7569H200.819V42.7921ZM200.916 46.1074H199.775V39.968H204.257V40.924H200.916V46.1074ZM208 46.1951C207.158 46.1951 206.497 45.9583 206.018 45.4847C205.544 45.0111 205.307 44.327 205.307 43.4324V39.968H206.447V43.3885C206.447 44.02 206.582 44.479 206.851 44.7655C207.126 45.052 207.512 45.1953 208.009 45.1953C208.506 45.1953 208.889 45.052 209.157 44.7655C209.426 44.479 209.561 44.02 209.561 43.3885V39.968H210.684V43.4324C210.684 44.327 210.444 45.0111 209.964 45.4847C209.491 45.9583 208.836 46.1951 208 46.1951ZM213.414 46.1074V40.9328H211.38V39.968H216.589V40.9328H214.555V46.1074H213.414ZM219.974 46.1951C219.132 46.1951 218.471 45.9583 217.992 45.4847C217.518 45.0111 217.281 44.327 217.281 43.4324V39.968H218.421V43.3885C218.421 44.02 218.556 44.479 218.825 44.7655C219.1 45.052 219.485 45.1953 219.982 45.1953C220.479 45.1953 220.862 45.052 221.131 44.7655C221.4 44.479 221.535 44.02 221.535 43.3885V39.968H222.657V43.4324C222.657 44.327 222.418 45.0111 221.938 45.4847C221.465 45.9583 220.81 46.1951 219.974 46.1951ZM224.254 46.1074V39.968H226.78C227.324 39.968 227.789 40.0557 228.175 40.2311C228.567 40.4065 228.868 40.658 229.078 40.9854C229.289 41.3128 229.394 41.7017 229.394 42.1519C229.394 42.6021 229.289 42.9909 229.078 43.3184C228.868 43.64 228.567 43.8885 228.175 44.0639C227.789 44.2334 227.324 44.3182 226.78 44.3182H224.886L225.394 43.8008V46.1074H224.254ZM228.271 46.1074L226.719 43.8797H227.938L229.499 46.1074H228.271ZM225.394 43.9235L224.886 43.3798H226.728C227.23 43.3798 227.608 43.2716 227.859 43.0553C228.116 42.8389 228.245 42.5378 228.245 42.1519C228.245 41.7601 228.116 41.459 227.859 41.2485C227.608 41.038 227.23 40.9328 226.728 40.9328H224.886L225.394 40.3714V43.9235ZM231.722 42.5202H234.774V43.4587H231.722V42.5202ZM231.81 45.1514H235.274V46.1074H230.669V39.968H235.151V40.924H231.81V45.1514Z" fill="#DFDFDF"/>
<defs>
<clipPath id="clip0_212_195">
<rect width="53.8689" height="62" fill="white"/>
</clipPath>
</defs>
</svg>
