<svg width="97" height="20" viewBox="0 0 97 20" fill="none" xmlns="http://www.w3.org/2000/svg">
<g clip-path="url(#clip0_83_10867)">
<g clip-path="url(#clip1_83_10867)">
<g clip-path="url(#clip2_83_10867)">
<path d="M9.91211 4.94824C14.3421 4.94824 17.3544 7.06948 18.0632 9.67651L14.4395 11.1177C14.0497 9.49839 12.2689 8.13013 9.70833 8.13013C9.02297 8.09942 8.33794 8.19623 7.69474 8.41469C7.05154 8.63313 6.4636 8.96866 5.96653 9.40095C5.46945 9.83324 5.07363 10.3532 4.80304 10.9294C4.53246 11.5056 4.39275 12.1261 4.39236 12.7532C4.39236 15.2469 6.56304 16.6394 9.21217 16.6394C10.2572 16.6879 11.2929 16.4391 12.1768 15.9272C13.0606 15.4154 13.749 14.6657 14.1472 13.7814L17.4165 15.4007C16.0166 18.0887 13.1637 19.797 9.02611 19.797C3.88734 19.797 0.405401 16.9471 0.405401 12.8665C0.369961 8.56731 4.11772 4.94824 9.91211 4.94824Z" fill="#C0C0C0"/>
<path d="M21.5113 0.000976562H25.6754L24.5768 6.98816C25.2953 6.31897 26.157 5.79239 27.1084 5.44133C28.0597 5.09028 29.0799 4.92229 30.1053 4.94786C34.3582 4.94786 37.0428 7.61157 36.4136 11.6355L35.1911 19.5132H31.0358L32.1344 12.4533C32.4886 10.0243 31.1508 8.40502 28.4752 8.40502C25.7995 8.40502 24.0984 10.0648 23.744 12.5342L22.6719 19.5456H18.4989L21.5113 0.000976562Z" fill="#C0C0C0"/>
<path d="M52.1131 14.1943L55.5066 15.7083C53.9915 18.2668 50.864 19.8132 46.9745 19.8132C41.9422 19.8132 38.2919 16.8823 38.2919 12.8827C38.2919 8.5916 42.1814 4.94824 47.8605 4.94824C52.9194 4.94824 56.2153 7.7496 56.2153 11.5549C56.2105 12.1866 56.1334 12.8162 55.985 13.4333H42.2698C42.6598 15.4979 44.6799 16.7204 47.1782 16.7204C48.1776 16.7664 49.171 16.5539 50.0441 16.1069C50.9169 15.66 51.6342 14.9971 52.1131 14.1943ZM42.5977 10.8505H52.1663C52.0247 9.32837 50.3946 7.99248 47.5858 7.99248C46.5387 7.9668 45.5067 8.22436 44.6191 8.73283C43.7318 9.24133 43.0284 9.97807 42.5977 10.8505Z" fill="#C0C0C0"/>
<path d="M67.4581 4.94824C71.8878 4.94824 74.8916 7.06948 75.6092 9.67651L71.9765 11.1177C71.5955 9.49839 69.8058 8.13013 67.2541 8.13013C66.5689 8.09942 65.884 8.19623 65.2406 8.41469C64.5975 8.63313 64.0096 8.96866 63.5125 9.40095C63.0154 9.83324 62.6197 10.3532 62.3489 10.9294C62.0784 11.5056 61.9387 12.1261 61.9381 12.7532C61.9381 15.2469 64.1088 16.6394 66.7492 16.6394C67.7902 16.684 68.8206 16.4332 69.6993 15.9215C70.5779 15.4099 71.2621 14.6623 71.6576 13.7814L74.9358 15.4007C73.5359 18.0887 70.6829 19.797 66.5455 19.797C61.3979 19.797 57.9247 16.9471 57.9247 12.8665C57.9158 8.56731 61.6637 4.94824 67.4581 4.94824Z" fill="#C0C0C0"/>
<path d="M96.5183 5.22314H90.0242L81.4745 10.7935L83.1315 0.000976562H78.9672L75.9637 19.5132H80.128L81.2618 12.1374L88.9435 19.5132H94.5426L86.3031 11.6355L96.5183 5.22314Z" fill="#C0C0C0"/>
</g>
</g>
</g>
<defs>
<clipPath id="clip0_83_10867">
<rect width="96.3127" height="20" fill="white" transform="translate(0.405151)"/>
</clipPath>
<clipPath id="clip1_83_10867">
<rect width="96.31" height="20" fill="white" transform="translate(0.405151)"/>
</clipPath>
<clipPath id="clip2_83_10867">
<rect width="96.31" height="19.9988" fill="white" transform="translate(0.405151 0.000976562)"/>
</clipPath>
</defs>
</svg>
