<svg width="202" height="62" viewBox="0 0 202 62" fill="none" xmlns="http://www.w3.org/2000/svg">
<g clip-path="url(#clip0_393_841)">
<path d="M20.214 42.4062L19.9008 43.3919C16.1771 45.9891 13.3586 49.6834 12.0139 54.0317L11.2711 54.68C-17.358 30.9696 13.9201 -13.5529 45.9846 4.72676C46.5794 5.06664 50.01 7.34785 50.191 7.68404L46.4039 13.1137L43.2557 17.3171L41.6131 19.8665C41.6131 19.8665 38.179 17.79 37.1115 17.3171C21.5188 10.3644 7.71699 30.7025 20.214 42.4062Z" fill="white"/>
<path d="M20.2139 42.4062C25.4658 47.3761 33.0399 47.5187 39.1387 44.0062L41.613 42.68L50.1909 55.1819C38.4444 64.2995 22.7179 64.2572 11.2709 54.68C12.6246 49.4971 15.7941 45.2873 20.2139 42.4062Z" fill="#33ED88"/>
<path d="M38.0254 25.2989C46.143 35.4928 29.9005 47.1845 22.8654 36.2017C16.5147 26.2841 30.6029 15.9775 38.0254 25.2989Z" fill="#33ED88"/>
</g>
<path d="M80.5036 23.4409C78.4329 24.2244 76.0824 24.6161 73.452 24.6161C64.8334 24.6161 60.524 20.4467 60.524 12.1079C60.524 4.21682 64.8334 0.271277 73.452 0.271277C76.0824 0.271277 78.4329 0.663033 80.5036 1.44655V5.47604C78.4329 4.5806 76.1943 4.13288 73.7878 4.13288C68.0234 4.13288 65.1412 6.79122 65.1412 12.1079C65.1412 17.8723 68.0234 20.7545 73.7878 20.7545C76.1943 20.7545 78.4329 20.3068 80.5036 19.4114V23.4409ZM84.701 24.4147V0.439172H95.6142C100.517 0.439172 102.968 2.58264 102.968 6.86957C102.968 9.76857 101.06 12.1695 97.2428 14.0723L104.848 24.4482H99.2408L91.9373 13.9883V11.9568C96.1907 11.2293 98.3173 9.57829 98.3173 7.00389C98.3173 5.23539 97.3212 4.35114 95.3288 4.35114H89.2342V24.4147H84.701ZM106.964 24.4482V0.439172H111.581L119.724 18.6558L127.699 0.439172H132.148V24.4482H128.035V7.72584L121.521 24.4482H117.726L111.077 7.72584V24.4482H106.964Z" fill="white"/>
<path d="M69.9596 57.9265C74.9405 57.9265 77.4309 54.9939 77.4309 49.1288C77.4309 44.1367 74.9405 41.6406 69.9596 41.6406H65.0067V57.9265H69.9596ZM60.5574 61.7881V37.779H69.9596C77.9066 37.779 81.8802 41.5623 81.8802 49.1288C81.8802 57.5683 77.9066 61.7881 69.9596 61.7881H60.5574ZM89.4523 49.7164C89.4523 55.3017 91.9315 58.0944 96.89 58.0944C101.725 58.0944 104.143 55.3017 104.143 49.7164C104.143 44.2206 101.725 41.4727 96.89 41.4727C91.9315 41.4727 89.4523 44.2206 89.4523 49.7164ZM84.8351 49.8171C84.8351 41.6798 88.8534 37.6111 96.89 37.6111C104.804 37.6111 108.76 41.6798 108.76 49.8171C108.76 57.9097 104.804 61.956 96.89 61.956C89.2116 61.956 85.1933 57.9097 84.8351 49.8171ZM132.115 60.7807C130.044 61.5642 127.693 61.956 125.063 61.956C116.444 61.956 112.135 57.7866 112.135 49.4478C112.135 41.5567 116.444 37.6111 125.063 37.6111C127.693 37.6111 130.044 38.0029 132.115 38.7864V42.8159C130.044 41.9204 127.805 41.4727 125.399 41.4727C119.634 41.4727 116.752 44.1311 116.752 49.4478C116.752 55.2122 119.634 58.0944 125.399 58.0944C127.805 58.0944 130.044 57.6467 132.115 56.7512V60.7807ZM152.01 37.779V41.6406H145.126V61.7881H140.677V41.6406H133.793V37.779H152.01ZM158.323 49.7164C158.323 55.3017 160.802 58.0944 165.761 58.0944C170.596 58.0944 173.014 55.3017 173.014 49.7164C173.014 44.2206 170.596 41.4727 165.761 41.4727C160.802 41.4727 158.323 44.2206 158.323 49.7164ZM153.706 49.8171C153.706 41.6798 157.724 37.6111 165.761 37.6111C173.674 37.6111 177.631 41.6798 177.631 49.8171C177.631 57.9097 173.674 61.956 165.761 61.956C158.082 61.956 154.064 57.9097 153.706 49.8171ZM181.845 61.7545V37.779H192.758C197.661 37.779 200.112 39.9225 200.112 44.2094C200.112 47.1084 198.204 49.5093 194.387 51.4121L201.993 61.7881H196.385L189.082 51.3282V49.2967C193.335 48.5691 195.462 46.9181 195.462 44.3437C195.462 42.5752 194.465 41.691 192.473 41.691H186.378V61.7545H181.845Z" fill="white"/>
<defs>
<clipPath id="clip0_393_841">
<rect width="50.2355" height="61.5054" fill="white" transform="translate(0.000915527 0.428711)"/>
</clipPath>
</defs>
</svg>
