<svg width="166" height="24" viewBox="0 0 166 24" fill="none" xmlns="http://www.w3.org/2000/svg">
<g clip-path="url(#clip0_83_10875)">
<g clip-path="url(#clip1_83_10875)">
<g clip-path="url(#clip2_83_10875)">
<path fill-rule="evenodd" clip-rule="evenodd" d="M16.1503 5.23505C16.3079 5.14573 16.4393 4.92157 16.4393 4.7377L16.4394 4.72722C16.4464 3.13879 16.4499 2.34022 16.4586 0.748318C16.4586 0.564436 16.3412 0.50139 16.1959 0.606465C11.6846 3.87607 7.11032 7.0441 2.47298 10.1333C2.31361 10.2384 2.17001 10.4766 2.156 10.6605C2.12377 11.0731 2.10025 11.3776 2.07628 11.6881C2.05468 11.9678 2.03268 12.2528 2.00364 12.6254C1.98963 12.8093 2.11747 12.8863 2.2891 12.797C6.94396 10.3382 11.5638 7.82167 16.1503 5.23505ZM16.3947 14.0527C16.3947 14.2366 16.244 14.4275 16.0602 14.4747C11.3493 15.7146 6.63487 16.937 1.91523 18.1419C1.72608 18.1909 1.58073 18.0788 1.59474 17.895C1.66304 17.0035 1.69807 16.5569 1.76812 15.6656C1.78213 15.4817 1.9415 15.2716 2.12187 15.1979C6.80125 13.3049 11.4631 11.3733 16.1074 9.39606C16.2773 9.32251 16.4157 9.41533 16.4157 9.59922L16.4093 10.8699C16.404 11.9199 16.3998 12.7473 16.3947 14.0527ZM16.3532 22.9037C16.3532 23.0876 16.1903 23.2382 15.9925 23.2382H1.54279C1.3449 23.2382 1.19429 23.0876 1.2083 22.9037C1.23894 22.5106 1.26171 22.216 1.28447 21.9214C1.30722 21.6269 1.33004 21.3316 1.36066 20.9388C1.37467 20.7549 1.54629 20.5833 1.74244 20.557C6.50412 19.9195 11.264 19.2769 16.0257 18.6307C16.2184 18.6044 16.3743 18.734 16.3725 18.9178C16.3638 20.5115 16.3602 21.3083 16.3532 22.9037ZM20.2301 22.9036C20.2319 23.0875 20.3965 23.238 20.5944 23.238H33.1474C33.3453 23.238 33.4959 23.0875 33.4819 22.9036C33.4364 22.3099 33.4136 22.014 33.3663 21.4202C33.3523 21.2364 33.1807 21.0647 32.9846 21.0403C28.8341 20.5219 24.6836 20 20.5331 19.4763C20.3404 19.4519 20.1845 19.5832 20.1863 19.767L20.2301 22.9036ZM20.4728 16.0858C20.2854 16.0402 20.1313 15.8528 20.1295 15.669L20.116 14.6667L20.1159 14.6616C20.1048 13.8332 20.0959 13.1801 20.0806 12.1506C20.0788 11.9668 20.2189 11.8722 20.3941 11.9405C24.4779 13.5377 28.5706 15.1068 32.6739 16.6514C32.856 16.7197 33.0188 16.9264 33.0329 17.1102L33.1642 18.8108C33.1782 18.9946 33.0329 19.1085 32.842 19.0629C28.716 18.0804 24.5936 17.0893 20.4728 16.0858ZM20.0237 8.05269C20.0255 8.23657 20.162 8.45723 20.3267 8.54304C24.3756 10.6323 28.4472 12.676 32.5382 14.6812C32.7134 14.7671 32.8447 14.6864 32.8307 14.5008L32.8259 14.4376C32.7835 13.8852 32.7607 13.5879 32.7151 13.0158C32.7011 12.8319 32.554 12.599 32.3894 12.4974C28.3054 9.97908 24.2582 7.40472 20.2514 4.76382C20.099 4.66224 19.9764 4.73054 19.98 4.91443L20.0237 8.05269ZM46.6719 20.9472C42.194 20.9472 42.194 14.0472 46.6719 14.0472C47.6544 14.0472 48.2078 14.317 48.6352 14.5394L48.9031 12.2137C48.2236 11.9125 47.4636 11.7706 46.6719 11.7706C39.0137 11.7706 38.9979 23.2589 46.6719 23.2589C47.4636 23.2589 48.46 23.068 49.157 22.7843L48.8557 20.4411C48.4284 20.6617 47.6526 20.9472 46.6719 20.9472ZM58.1624 23.2256L55.8823 18.9052H54.7895V23.2256H52.5269V11.9125H56.9891C61.024 11.9125 61.4198 17.5936 58.0976 18.5585L60.7245 23.2273H58.1624V23.2256ZM54.7912 16.7074H56.7842C58.32 16.7074 58.32 14.175 56.7842 14.175H54.7912V16.7074ZM68.6346 11.7218C76.4188 11.7218 76.4188 23.3852 68.6346 23.3852C60.8502 23.3852 60.8502 11.7218 68.6346 11.7218ZM68.6346 14.0475C64.1075 14.0475 64.1075 21.042 68.6346 21.042C73.1615 21.042 73.1615 14.0475 68.6346 14.0475ZM80.4092 23.4638L75.7736 11.9125H78.3216L80.7752 17.8633L82.8154 12.0228H83.6263L85.6665 17.8633L88.12 11.9125H90.6681L86.0482 23.4165H85.2865L83.2129 18.2257L81.157 23.4638H80.4092ZM92.9312 23.2256H96.3007C103.833 23.2256 103.833 11.9125 96.3007 11.9125H92.9312V23.2256ZM95.1921 20.9648V14.175H96.3007C100.7 14.175 100.7 20.9648 96.3007 20.9648H95.1921ZM105.131 20.1243C106.429 21.0419 107.837 21.0734 108.359 21.0262C109.022 20.9771 109.592 20.5042 109.529 19.886C109.481 19.2381 108.991 18.9527 108.359 18.732C106.586 18.0823 105.003 17.1804 105.003 15.2821C105.003 13.3836 106.317 11.9266 108.199 11.832C108.784 11.8005 109.56 11.8005 111.016 12.3066L110.73 14.4904C109.479 13.9844 108.768 14.0001 108.42 14.0159C107.614 14.0631 107.25 14.6498 107.297 15.2821C107.36 15.916 107.914 16.1997 108.564 16.4221C110.32 17.0718 111.838 18.084 111.838 19.8879C111.838 21.7722 110.54 23.2117 108.42 23.322C107.788 23.3694 106.38 23.2905 104.844 22.499L105.131 20.1243ZM116.826 14.175V23.2256H119.088V14.1733H121.906V11.9265H114.01V14.175H116.826ZM130.546 23.2256L128.268 18.9052H127.177V23.2256H124.913V11.9125H129.376C133.411 11.9125 133.807 17.5936 130.484 18.5585L133.111 23.2273H130.546V23.2256ZM127.177 16.7074H129.17C130.704 16.7074 130.704 14.175 129.17 14.175H127.177V16.7074ZM136.085 11.9125V23.2256H143.152V20.963H138.347V18.7004H142.533V16.4377H138.347V14.175H142.961V11.9125H136.085ZM146.695 23.2256V11.9125H153.569V14.175H148.957V16.4377H153.143V18.7004H148.957V20.963H153.76V23.2256H146.695ZM159.521 14.175V23.2256H161.782V14.1733H164.6V11.9265H156.703V14.175H159.521Z" fill="#C0C0C0"/>
</g>
</g>
</g>
<defs>
<clipPath id="clip0_83_10875">
<rect width="164.725" height="24" fill="white" transform="translate(0.519897)"/>
</clipPath>
<clipPath id="clip1_83_10875">
<rect width="164.72" height="24" fill="white" transform="translate(0.519897)"/>
</clipPath>
<clipPath id="clip2_83_10875">
<rect width="164.72" height="23.9989" fill="white" transform="translate(0.519897 0.000976562)"/>
</clipPath>
</defs>
</svg>
