<svg width="404" height="277" viewBox="0 0 404 277" fill="none" xmlns="http://www.w3.org/2000/svg">
<g filter="url(#filter0_f_643_5768)">
<ellipse cx="308.201" cy="93.2603" rx="19.0752" ry="16.0633" transform="rotate(1.07834 308.201 93.2603)" fill="#F79533"/>
</g>
<path d="M62.3836 163.944C61.5433 169.713 61.0902 175.565 61.0401 181.462L61.585 181.467C61.5819 181.832 61.5804 182.197 61.5804 182.562H62.5835C62.5835 182.2 62.585 181.838 62.5881 181.476L63.133 181.481C63.1823 175.683 63.6277 169.93 64.4538 164.259L63.9145 164.18C64.0189 163.464 64.1293 162.749 64.2457 162.035L64.7836 162.123C65.7147 156.415 67.0323 150.796 68.7208 145.304L68.1999 145.144C68.4125 144.453 68.631 143.763 68.8553 143.076L69.3734 143.245C71.1634 137.759 73.3258 132.407 75.8445 127.229L75.3544 126.991C75.6709 126.341 75.9929 125.693 76.3205 125.048L76.8064 125.295C79.4134 120.162 82.3747 115.208 85.674 110.472L85.2269 110.16C85.6403 109.567 86.059 108.977 86.483 108.39L86.9247 108.709C90.288 104.056 93.9834 99.6242 97.9951 95.4514L97.6023 95.0738C97.8531 94.8129 98.1051 94.5531 98.3583 94.2943C98.6082 94.0389 98.859 93.7847 99.1108 93.5318L99.497 93.9163C103.537 89.8587 107.825 86.1177 112.325 82.7088L111.996 82.2744C112.565 81.8431 113.138 81.4171 113.714 80.9965L114.035 81.4366C118.645 78.07 123.467 75.0459 128.463 72.3806L128.206 71.8998C128.836 71.5638 129.469 71.2336 130.104 70.909L130.352 71.3943C135.42 68.8043 140.659 66.5794 146.031 64.7359L145.854 64.2205C146.529 63.9889 147.206 63.7632 147.885 63.5436L148.052 64.0621C153.452 62.3159 158.978 60.9526 164.592 59.9886L164.5 59.4515C165.203 59.3308 165.908 59.2163 166.613 59.1081L166.696 59.6467C172.286 58.7896 177.958 58.3274 183.674 58.2762L183.669 57.7313C184.026 57.7281 184.383 57.7265 184.741 57.7265C185.098 57.7265 185.455 57.7281 185.812 57.7313L185.807 58.2762C191.523 58.3274 197.195 58.7896 202.785 59.6467L202.868 59.1081C203.574 59.2163 204.278 59.3308 204.981 59.4515L204.889 59.9886C210.503 60.9526 216.03 62.3159 221.429 64.0621L221.596 63.5436C222.275 63.7632 222.952 63.9889 223.627 64.2205L223.45 64.7359C228.822 66.5794 234.061 68.8043 239.13 71.3943L239.378 70.909C240.013 71.2336 240.645 71.5638 241.275 71.8998L241.018 72.3806C246.014 75.0459 250.836 78.07 255.446 81.4366L255.768 80.9965C256.344 81.4171 256.916 81.8431 257.486 82.2744L257.156 82.7088C261.656 86.1177 265.945 89.8587 269.984 93.9163L270.37 93.5318C270.622 93.7847 270.873 94.0389 271.123 94.2943C271.376 94.5531 271.628 94.8129 271.879 95.0738L271.486 95.4515C275.498 99.6242 279.193 104.056 282.557 108.709L282.998 108.39C283.422 108.977 283.841 109.567 284.254 110.16L283.807 110.472C287.107 115.208 290.068 120.162 292.675 125.295L293.161 125.048C293.488 125.693 293.81 126.341 294.127 126.991L293.637 127.229C296.155 132.407 298.318 137.759 300.108 143.245L300.626 143.076C300.85 143.763 301.069 144.453 301.281 145.144L300.76 145.304C302.449 150.796 303.767 156.415 304.698 162.123L305.236 162.035C305.352 162.749 305.462 163.464 305.567 164.18L305.027 164.259C305.854 169.93 306.299 175.683 306.348 181.481L306.893 181.476C306.896 181.838 306.898 182.2 306.898 182.562H307.901C307.901 182.197 307.899 181.832 307.896 181.467L308.441 181.462C308.391 175.565 307.938 169.713 307.098 163.944L306.558 164.022C306.453 163.3 306.342 162.579 306.224 161.859L306.762 161.771C305.815 155.965 304.475 150.249 302.757 144.663L302.236 144.823C302.022 144.126 301.802 143.43 301.575 142.737L302.093 142.568C300.273 136.988 298.073 131.544 295.511 126.277L295.021 126.516C294.702 125.859 294.377 125.206 294.047 124.556L294.532 124.309C291.881 119.088 288.868 114.048 285.512 109.231L285.065 109.543C284.648 108.944 284.226 108.349 283.798 107.758L284.24 107.438C280.819 102.705 277.06 98.1967 272.979 93.9522L272.586 94.3299C272.333 94.0669 272.079 93.8049 271.824 93.5439C271.572 93.2864 271.319 93.0302 271.065 92.7751L271.451 92.3906C267.342 88.2632 262.98 84.4578 258.403 80.9902L258.074 81.4246C257.5 80.9898 256.922 80.5603 256.342 80.1362L256.663 79.6961C251.974 76.2716 247.069 73.1955 241.987 70.4843L241.73 70.9651C241.096 70.6264 240.458 70.2935 239.818 69.9663L240.066 69.481C234.91 66.8465 229.581 64.5832 224.117 62.7081L223.94 63.2235C223.259 62.99 222.577 62.7626 221.892 62.5412L222.06 62.0227C216.568 60.2464 210.947 58.8596 205.236 57.879L205.144 58.4161C204.435 58.2944 203.725 58.179 203.013 58.0699L203.096 57.5313C197.409 56.6594 191.64 56.1892 185.825 56.1372L185.82 56.6821C185.461 56.6789 185.101 56.6773 184.741 56.6773C184.381 56.6773 184.021 56.6789 183.661 56.6821L183.656 56.1372C177.842 56.1892 172.072 56.6594 166.385 57.5313L166.468 58.0699C165.757 58.179 165.046 58.2944 164.338 58.4161L164.246 57.879C158.535 58.8596 152.913 60.2464 147.421 62.0227L147.589 62.5412C146.904 62.7626 146.222 62.99 145.541 63.2235L145.365 62.7081C139.901 64.5832 134.571 66.8465 129.416 69.481L129.664 69.9663C129.023 70.2935 128.386 70.6264 127.751 70.9651L127.494 70.4843C122.412 73.1955 117.507 76.2716 112.818 79.6961L113.14 80.1362C112.559 80.5603 111.981 80.9898 111.407 81.4246L111.078 80.9902C106.501 84.4578 102.139 88.2632 98.0299 92.3906L98.4161 92.7751C98.1622 93.0301 97.9093 93.2864 97.6573 93.5439C97.402 93.8049 97.1479 94.0669 96.895 94.3299L96.5022 93.9522C92.4214 98.1967 88.6624 102.705 85.2412 107.438L85.6829 107.758C85.2553 108.349 84.8331 108.944 84.4161 109.543L83.969 109.231C80.6129 114.048 77.6007 119.088 74.9487 124.309L75.4346 124.556C75.1042 125.206 74.7795 125.859 74.4604 126.515L73.9703 126.277C71.4083 131.544 69.2087 136.988 67.3879 142.568L67.906 142.737C67.6797 143.43 67.4594 144.126 67.2449 144.823L66.724 144.663C65.0065 150.249 63.6661 155.965 62.719 161.771L63.2569 161.859C63.1395 162.579 63.0281 163.3 62.9229 164.022L62.3836 163.944Z" stroke="#7A7A7A" stroke-width="1.08991" stroke-dasharray="2.18 17.44"/>
<path d="M39.5338 190.214C34.7281 190.521 30.5572 186.872 30.5218 182.056C30.2436 144.272 43.8589 107.578 68.9511 79.0576C94.0434 50.5367 128.704 32.3582 166.216 27.821C170.996 27.2428 175.147 30.9148 175.454 35.7205L175.476 36.0521C175.783 40.8578 172.129 44.9741 167.353 45.5875C134.547 49.8009 104.272 65.8143 82.2934 90.7958C60.315 115.777 48.2885 147.846 48.2884 180.921C48.2884 185.737 44.671 189.885 39.8653 190.192L39.5338 190.214Z" fill="#E07000"/>
<path d="M178.58 35.5545C178.376 30.7433 182.114 26.6519 186.929 26.7201C216.147 27.1341 244.654 35.8441 269.114 51.8313C273.145 54.4659 273.958 59.9476 271.1 63.8233L270.903 64.0906C268.044 67.9663 262.6 68.7654 258.549 66.1605C237.378 52.5444 212.846 45.0489 187.681 44.507C182.866 44.4034 178.798 40.6976 178.594 35.8864L178.58 35.5545Z" fill="#CB6500"/>
<path d="M273.865 65.9136C276.814 62.1071 282.309 61.3942 285.943 64.5542C299.756 76.5661 311.32 90.9422 320.094 107.008C322.402 111.234 320.528 116.449 316.178 118.514L315.878 118.657C311.528 120.722 306.352 118.854 304.013 114.645C296.473 101.078 286.674 88.8966 275.037 78.6257C271.427 75.4391 270.711 69.9826 273.661 66.1761L273.865 65.9136Z" fill="#F79533"/>
<path d="M316.812 119.868C321.183 117.847 326.39 119.744 328.16 124.222C335.441 142.636 339.107 162.281 338.959 182.081C338.923 186.897 334.752 190.545 329.946 190.237L329.614 190.215C324.809 189.907 321.192 185.759 321.193 180.944C321.195 164.1 318.078 147.401 312 131.692C310.263 127.201 312.14 122.028 316.511 120.007L316.812 119.868Z" fill="#FBDE9D"/>
<circle cx="300.816" cy="93.1894" r="10.8991" fill="#F9F9F9" stroke="#F79533" stroke-width="8.71931"/>
<path d="M149.798 139.833C153.146 139.833 155.989 140.548 158.325 141.977C160.697 143.373 162.511 145.413 163.766 148.098C165.022 150.784 165.65 154.097 165.65 158.038C165.65 162.224 164.882 165.764 163.348 168.659C161.848 171.553 159.755 173.751 157.07 175.25C154.384 176.75 151.263 177.5 147.705 177.5C145.857 177.5 144.095 177.308 142.421 176.924C140.747 176.541 139.3 175.948 138.079 175.146L140.59 170.019C141.602 170.681 142.7 171.152 143.886 171.431C145.072 171.675 146.293 171.798 147.548 171.798C151.001 171.798 153.739 170.734 155.762 168.606C157.785 166.479 158.796 163.34 158.796 159.189C158.796 158.527 158.779 157.759 158.744 156.888C158.709 155.981 158.587 155.074 158.378 154.167L160.47 156.469C159.877 157.899 159.023 159.102 157.907 160.079C156.791 161.02 155.483 161.735 153.983 162.224C152.483 162.712 150.827 162.956 149.013 162.956C146.641 162.956 144.497 162.503 142.578 161.596C140.695 160.654 139.195 159.346 138.079 157.672C136.963 155.963 136.405 153.975 136.405 151.708C136.405 149.267 136.998 147.174 138.184 145.43C139.37 143.652 140.974 142.274 142.997 141.297C145.055 140.321 147.322 139.833 149.798 139.833ZM150.164 145.169C148.769 145.169 147.531 145.43 146.45 145.954C145.368 146.442 144.514 147.157 143.886 148.098C143.293 149.005 142.997 150.104 142.997 151.394C142.997 153.313 143.659 154.83 144.985 155.946C146.31 157.062 148.089 157.62 150.321 157.62C151.786 157.62 153.076 157.358 154.192 156.835C155.308 156.277 156.18 155.527 156.808 154.586C157.436 153.609 157.75 152.528 157.75 151.342C157.75 150.191 157.453 149.162 156.86 148.255C156.268 147.314 155.413 146.564 154.297 146.006C153.181 145.448 151.803 145.169 150.164 145.169ZM183.347 177.5C180.452 177.5 177.837 176.768 175.5 175.303C173.198 173.838 171.384 171.71 170.059 168.92C168.734 166.095 168.071 162.677 168.071 158.666C168.071 154.655 168.734 151.255 170.059 148.465C171.384 145.64 173.198 143.495 175.5 142.03C177.837 140.565 180.452 139.833 183.347 139.833C186.277 139.833 188.893 140.565 191.195 142.03C193.497 143.495 195.31 145.64 196.636 148.465C197.996 151.255 198.676 154.655 198.676 158.666C198.676 162.677 197.996 166.095 196.636 168.92C195.31 171.71 193.497 173.838 191.195 175.303C188.893 176.768 186.277 177.5 183.347 177.5ZM183.347 171.588C185.056 171.588 186.539 171.135 187.794 170.228C189.05 169.286 190.026 167.856 190.724 165.938C191.456 164.02 191.822 161.596 191.822 158.666C191.822 155.702 191.456 153.278 190.724 151.394C190.026 149.476 189.05 148.064 187.794 147.157C186.539 146.215 185.056 145.744 183.347 145.744C181.708 145.744 180.243 146.215 178.953 147.157C177.697 148.064 176.703 149.476 175.971 151.394C175.273 153.278 174.924 155.702 174.924 158.666C174.924 161.596 175.273 164.02 175.971 165.938C176.703 167.856 177.697 169.286 178.953 170.228C180.243 171.135 181.708 171.588 183.347 171.588ZM206.219 176.977L231.226 140.356H236.353L211.346 176.977H206.219ZM209.253 160.079C207.544 160.079 206.027 159.66 204.702 158.823C203.377 157.986 202.348 156.818 201.615 155.318C200.883 153.818 200.517 152.057 200.517 150.034C200.517 148.011 200.883 146.25 201.615 144.75C202.348 143.251 203.377 142.082 204.702 141.245C206.027 140.408 207.544 139.989 209.253 139.989C211.032 139.989 212.567 140.408 213.857 141.245C215.182 142.082 216.211 143.251 216.944 144.75C217.676 146.25 218.042 148.011 218.042 150.034C218.042 152.057 217.676 153.818 216.944 155.318C216.211 156.818 215.182 157.986 213.857 158.823C212.567 159.66 211.032 160.079 209.253 160.079ZM209.306 156.417C210.701 156.417 211.782 155.876 212.549 154.795C213.351 153.679 213.752 152.092 213.752 150.034C213.752 147.976 213.351 146.407 212.549 145.326C211.782 144.21 210.701 143.652 209.306 143.652C207.911 143.652 206.794 144.21 205.957 145.326C205.155 146.442 204.754 148.011 204.754 150.034C204.754 152.057 205.155 153.626 205.957 154.743C206.794 155.859 207.911 156.417 209.306 156.417ZM233.266 177.343C231.557 177.343 230.04 176.924 228.715 176.087C227.389 175.25 226.361 174.082 225.628 172.582C224.896 171.083 224.53 169.321 224.53 167.298C224.53 165.275 224.896 163.514 225.628 162.014C226.361 160.515 227.389 159.346 228.715 158.509C230.04 157.672 231.557 157.254 233.266 157.254C235.045 157.254 236.58 157.672 237.87 158.509C239.195 159.346 240.224 160.515 240.957 162.014C241.689 163.514 242.055 165.275 242.055 167.298C242.055 169.321 241.689 171.083 240.957 172.582C240.224 174.082 239.195 175.25 237.87 176.087C236.58 176.924 235.045 177.343 233.266 177.343ZM233.266 173.681C234.661 173.681 235.76 173.123 236.562 172.007C237.364 170.891 237.765 169.321 237.765 167.298C237.765 165.275 237.364 163.706 236.562 162.59C235.76 161.474 234.661 160.916 233.266 160.916C231.906 160.916 230.807 161.474 229.97 162.59C229.168 163.671 228.767 165.241 228.767 167.298C228.767 169.356 229.168 170.943 229.97 172.059C230.807 173.14 231.906 173.681 233.266 173.681Z" fill="#F79533"/>
<path d="M169.46 226.455C168.367 226.455 167.32 226.301 166.32 225.995C165.32 225.675 164.527 225.268 163.94 224.775L164.84 222.755C165.4 223.195 166.094 223.561 166.92 223.855C167.747 224.148 168.594 224.295 169.46 224.295C170.194 224.295 170.787 224.215 171.24 224.055C171.694 223.895 172.027 223.681 172.24 223.415C172.454 223.135 172.56 222.821 172.56 222.475C172.56 222.048 172.407 221.708 172.1 221.455C171.794 221.188 171.394 220.981 170.9 220.835C170.42 220.675 169.88 220.528 169.28 220.395C168.694 220.261 168.1 220.108 167.5 219.935C166.914 219.748 166.374 219.515 165.88 219.235C165.4 218.941 165.007 218.555 164.7 218.075C164.394 217.595 164.24 216.981 164.24 216.235C164.24 215.475 164.44 214.781 164.84 214.155C165.254 213.515 165.874 213.008 166.7 212.635C167.54 212.248 168.6 212.055 169.88 212.055C170.72 212.055 171.554 212.161 172.38 212.375C173.207 212.588 173.927 212.895 174.54 213.295L173.72 215.315C173.094 214.941 172.447 214.668 171.78 214.495C171.114 214.308 170.474 214.215 169.86 214.215C169.14 214.215 168.554 214.301 168.1 214.475C167.66 214.648 167.334 214.875 167.12 215.155C166.92 215.435 166.82 215.755 166.82 216.115C166.82 216.541 166.967 216.888 167.26 217.155C167.567 217.408 167.96 217.608 168.44 217.755C168.934 217.901 169.48 218.048 170.08 218.195C170.68 218.328 171.274 218.481 171.86 218.655C172.46 218.828 173 219.055 173.48 219.335C173.974 219.615 174.367 219.995 174.66 220.475C174.967 220.955 175.12 221.561 175.12 222.295C175.12 223.041 174.914 223.735 174.5 224.375C174.1 225.001 173.48 225.508 172.64 225.895C171.8 226.268 170.74 226.455 169.46 226.455ZM180.099 218.075H187.059V220.215H180.099V218.075ZM180.299 224.075H188.199V226.255H177.699V212.255H187.919V214.435H180.299V224.075ZM197.657 226.455C196.564 226.455 195.557 226.275 194.637 225.915C193.717 225.555 192.917 225.055 192.237 224.415C191.557 223.761 191.03 223.001 190.657 222.135C190.284 221.255 190.097 220.295 190.097 219.255C190.097 218.215 190.284 217.261 190.657 216.395C191.03 215.515 191.557 214.755 192.237 214.115C192.917 213.461 193.717 212.955 194.637 212.595C195.557 212.235 196.557 212.055 197.637 212.055C198.73 212.055 199.73 212.235 200.637 212.595C201.557 212.955 202.357 213.461 203.037 214.115C203.717 214.755 204.244 215.515 204.617 216.395C204.99 217.261 205.177 218.215 205.177 219.255C205.177 220.295 204.99 221.255 204.617 222.135C204.244 223.015 203.717 223.775 203.037 224.415C202.357 225.055 201.557 225.555 200.637 225.915C199.73 226.275 198.737 226.455 197.657 226.455ZM197.637 224.175C198.344 224.175 198.997 224.055 199.597 223.815C200.197 223.575 200.717 223.235 201.157 222.795C201.597 222.341 201.937 221.821 202.177 221.235C202.43 220.635 202.557 219.975 202.557 219.255C202.557 218.535 202.43 217.881 202.177 217.295C201.937 216.695 201.597 216.175 201.157 215.735C200.717 215.281 200.197 214.935 199.597 214.695C198.997 214.455 198.344 214.335 197.637 214.335C196.93 214.335 196.277 214.455 195.677 214.695C195.09 214.935 194.57 215.281 194.117 215.735C193.677 216.175 193.33 216.695 193.077 217.295C192.837 217.881 192.717 218.535 192.717 219.255C192.717 219.961 192.837 220.615 193.077 221.215C193.33 221.815 193.677 222.341 194.117 222.795C194.557 223.235 195.077 223.575 195.677 223.815C196.277 224.055 196.93 224.175 197.637 224.175Z" fill="white"/>
<path d="M82.8427 253.614V242.933H84.3685V252.287H90.1516V253.614H82.8427ZM96.1641 253.614V251.905L96.0878 251.585V248.67C96.0878 248.05 95.9047 247.572 95.5385 247.236C95.1825 246.89 94.6433 246.717 93.9211 246.717C93.443 246.717 92.975 246.799 92.5173 246.961C92.0595 247.114 91.673 247.323 91.3576 247.587L90.7473 246.488C91.1643 246.153 91.6628 245.898 92.2426 245.725C92.8326 245.542 93.4481 245.451 94.0889 245.451C95.1977 245.451 96.0522 245.72 96.6524 246.26C97.2526 246.799 97.5527 247.623 97.5527 248.731V253.614H96.1641ZM93.5091 253.706C92.9089 253.706 92.3799 253.604 91.9222 253.401C91.4746 253.197 91.1287 252.917 90.8846 252.561C90.6404 252.195 90.5184 251.783 90.5184 251.325C90.5184 250.888 90.6201 250.491 90.8235 250.135C91.0372 249.779 91.3779 249.494 91.8459 249.281C92.324 249.067 92.9649 248.96 93.7685 248.96H96.332V250.013H93.8295C93.0971 250.013 92.6037 250.135 92.3494 250.379C92.0951 250.624 91.968 250.919 91.968 251.264C91.968 251.661 92.1256 251.982 92.441 252.226C92.7563 252.46 93.1937 252.577 93.7532 252.577C94.3025 252.577 94.7807 252.455 95.1876 252.21C95.6046 251.966 95.9047 251.61 96.0878 251.142L96.3777 252.149C96.1845 252.628 95.8437 253.009 95.3554 253.294C94.8671 253.568 94.2517 253.706 93.5091 253.706ZM102.038 253.706C101.366 253.706 100.726 253.614 100.115 253.431C99.5151 253.248 99.0421 253.024 98.6962 252.76L99.3065 251.6C99.6524 251.834 100.08 252.032 100.588 252.195C101.097 252.358 101.616 252.439 102.145 252.439C102.826 252.439 103.315 252.343 103.61 252.149C103.915 251.956 104.067 251.687 104.067 251.341C104.067 251.086 103.976 250.888 103.793 250.746C103.61 250.603 103.365 250.496 103.06 250.425C102.765 250.354 102.435 250.293 102.068 250.242C101.702 250.181 101.336 250.11 100.97 250.028C100.604 249.937 100.268 249.815 99.9627 249.662C99.6575 249.499 99.4134 249.281 99.2303 249.006C99.0471 248.721 98.9556 248.345 98.9556 247.877C98.9556 247.389 99.0929 246.961 99.3676 246.595C99.6422 246.229 100.029 245.949 100.527 245.756C101.036 245.553 101.636 245.451 102.328 245.451C102.857 245.451 103.391 245.517 103.93 245.649C104.479 245.771 104.927 245.949 105.273 246.183L104.647 247.343C104.281 247.099 103.899 246.931 103.503 246.839C103.106 246.748 102.709 246.702 102.313 246.702C101.672 246.702 101.194 246.809 100.878 247.022C100.563 247.226 100.405 247.49 100.405 247.816C100.405 248.091 100.497 248.304 100.68 248.457C100.873 248.599 101.117 248.711 101.412 248.792C101.717 248.874 102.053 248.945 102.419 249.006C102.786 249.057 103.152 249.128 103.518 249.22C103.884 249.301 104.215 249.418 104.51 249.571C104.815 249.723 105.059 249.937 105.242 250.212C105.435 250.486 105.532 250.852 105.532 251.31C105.532 251.798 105.39 252.221 105.105 252.577C104.82 252.933 104.418 253.212 103.899 253.416C103.381 253.609 102.76 253.706 102.038 253.706ZM109.595 253.706C108.781 253.706 108.15 253.487 107.703 253.05C107.255 252.612 107.031 251.987 107.031 251.173V243.757H108.496V251.112C108.496 251.549 108.603 251.885 108.817 252.119C109.041 252.353 109.356 252.47 109.763 252.47C110.221 252.47 110.602 252.343 110.907 252.088L111.365 253.141C111.141 253.335 110.872 253.477 110.556 253.568C110.251 253.66 109.931 253.706 109.595 253.706ZM105.658 246.733V245.527H110.816V246.733H105.658ZM121.134 253.736C120.32 253.736 119.567 253.604 118.875 253.34C118.194 253.065 117.599 252.683 117.09 252.195C116.591 251.697 116.2 251.117 115.915 250.456C115.63 249.794 115.488 249.067 115.488 248.274C115.488 247.48 115.63 246.753 115.915 246.092C116.2 245.43 116.597 244.856 117.105 244.367C117.614 243.869 118.209 243.488 118.89 243.223C119.582 242.948 120.335 242.811 121.149 242.811C121.973 242.811 122.731 242.953 123.422 243.238C124.124 243.513 124.719 243.925 125.208 244.474L124.216 245.436C123.809 245.008 123.351 244.693 122.842 244.489C122.334 244.276 121.79 244.169 121.21 244.169C120.61 244.169 120.05 244.271 119.531 244.474C119.023 244.678 118.58 244.963 118.204 245.329C117.827 245.695 117.532 246.132 117.319 246.641C117.115 247.139 117.014 247.684 117.014 248.274C117.014 248.864 117.115 249.413 117.319 249.922C117.532 250.42 117.827 250.852 118.204 251.219C118.58 251.585 119.023 251.87 119.531 252.073C120.05 252.277 120.61 252.378 121.21 252.378C121.79 252.378 122.334 252.277 122.842 252.073C123.351 251.859 123.809 251.534 124.216 251.097L125.208 252.058C124.719 252.607 124.124 253.024 123.422 253.309C122.731 253.594 121.968 253.736 121.134 253.736ZM130.944 245.451C131.605 245.451 132.185 245.578 132.684 245.832C133.192 246.087 133.589 246.473 133.874 246.992C134.159 247.511 134.301 248.167 134.301 248.96V253.614H132.836V249.128C132.836 248.345 132.643 247.755 132.256 247.358C131.88 246.961 131.346 246.763 130.654 246.763C130.135 246.763 129.683 246.865 129.296 247.068C128.91 247.272 128.609 247.572 128.396 247.969C128.192 248.365 128.091 248.859 128.091 249.449V253.614H126.626V242.292H128.091V247.709L127.801 247.129C128.065 246.6 128.472 246.188 129.021 245.893C129.571 245.598 130.212 245.451 130.944 245.451ZM140.068 253.706C139.203 253.706 138.44 253.528 137.779 253.172C137.128 252.816 136.62 252.327 136.253 251.707C135.897 251.086 135.719 250.374 135.719 249.571C135.719 248.767 135.892 248.055 136.238 247.434C136.594 246.814 137.077 246.331 137.688 245.985C138.308 245.629 139.005 245.451 139.778 245.451C140.561 245.451 141.253 245.624 141.853 245.97C142.453 246.315 142.921 246.804 143.257 247.434C143.603 248.055 143.776 248.782 143.776 249.616C143.776 249.677 143.771 249.749 143.761 249.83C143.761 249.911 143.756 249.988 143.745 250.059H136.864V249.006H142.982L142.387 249.372C142.398 248.854 142.291 248.391 142.067 247.984C141.843 247.577 141.533 247.262 141.136 247.038C140.75 246.804 140.297 246.687 139.778 246.687C139.269 246.687 138.817 246.804 138.42 247.038C138.023 247.262 137.713 247.582 137.489 247.999C137.265 248.406 137.154 248.874 137.154 249.403V249.647C137.154 250.186 137.276 250.669 137.52 251.097C137.774 251.514 138.125 251.839 138.573 252.073C139.02 252.307 139.534 252.424 140.114 252.424C140.592 252.424 141.024 252.343 141.411 252.18C141.808 252.017 142.153 251.773 142.448 251.448L143.257 252.394C142.891 252.821 142.433 253.146 141.884 253.37C141.345 253.594 140.739 253.706 140.068 253.706ZM148.79 253.706C147.966 253.706 147.228 253.528 146.577 253.172C145.936 252.816 145.433 252.327 145.067 251.707C144.7 251.086 144.517 250.374 144.517 249.571C144.517 248.767 144.7 248.055 145.067 247.434C145.433 246.814 145.936 246.331 146.577 245.985C147.228 245.629 147.966 245.451 148.79 245.451C149.522 245.451 150.173 245.598 150.743 245.893C151.323 246.178 151.77 246.605 152.086 247.175L150.972 247.892C150.707 247.495 150.382 247.206 149.995 247.022C149.619 246.829 149.212 246.733 148.775 246.733C148.246 246.733 147.773 246.85 147.355 247.083C146.938 247.317 146.608 247.648 146.364 248.075C146.119 248.492 145.997 248.991 145.997 249.571C145.997 250.151 146.119 250.654 146.364 251.081C146.608 251.509 146.938 251.839 147.355 252.073C147.773 252.307 148.246 252.424 148.775 252.424C149.212 252.424 149.619 252.333 149.995 252.149C150.382 251.956 150.707 251.661 150.972 251.264L152.086 251.966C151.77 252.526 151.323 252.958 150.743 253.263C150.173 253.558 149.522 253.706 148.79 253.706ZM154.523 251.661L154.554 249.784L159.208 245.527H160.978L157.407 249.037L156.614 249.708L154.523 251.661ZM153.333 253.614V242.292H154.798V253.614H153.333ZM159.513 253.614L156.339 249.677L157.285 248.503L161.313 253.614H159.513ZM169.207 253.706C168.393 253.706 167.671 253.528 167.04 253.172C166.41 252.816 165.911 252.327 165.545 251.707C165.179 251.076 164.996 250.364 164.996 249.571C164.996 248.767 165.179 248.055 165.545 247.434C165.911 246.814 166.41 246.331 167.04 245.985C167.671 245.629 168.393 245.451 169.207 245.451C170.011 245.451 170.728 245.629 171.359 245.985C172 246.331 172.498 246.814 172.854 247.434C173.22 248.045 173.403 248.757 173.403 249.571C173.403 250.374 173.22 251.086 172.854 251.707C172.498 252.327 172 252.816 171.359 253.172C170.728 253.528 170.011 253.706 169.207 253.706ZM169.207 252.424C169.726 252.424 170.189 252.307 170.596 252.073C171.013 251.839 171.338 251.509 171.572 251.081C171.806 250.644 171.923 250.14 171.923 249.571C171.923 248.991 171.806 248.492 171.572 248.075C171.338 247.648 171.013 247.317 170.596 247.083C170.189 246.85 169.726 246.733 169.207 246.733C168.688 246.733 168.226 246.85 167.819 247.083C167.412 247.317 167.086 247.648 166.842 248.075C166.598 248.492 166.476 248.991 166.476 249.571C166.476 250.14 166.598 250.644 166.842 251.081C167.086 251.509 167.412 251.839 167.819 252.073C168.226 252.307 168.688 252.424 169.207 252.424ZM179.203 245.451C179.864 245.451 180.444 245.578 180.942 245.832C181.451 246.087 181.847 246.473 182.132 246.992C182.417 247.511 182.559 248.167 182.559 248.96V253.614H181.095V249.128C181.095 248.345 180.901 247.755 180.515 247.358C180.138 246.961 179.604 246.763 178.913 246.763C178.394 246.763 177.941 246.865 177.555 247.068C177.168 247.272 176.868 247.572 176.654 247.969C176.451 248.365 176.349 248.859 176.349 249.449V253.614H174.884V245.527H176.288V247.709L176.059 247.129C176.324 246.6 176.731 246.188 177.28 245.893C177.829 245.598 178.47 245.451 179.203 245.451ZM189.423 253.614V243.543L190.079 244.261H187.012V242.933H190.933V253.614H189.423ZM195.99 253.736C195.237 253.736 194.505 253.619 193.793 253.385C193.091 253.151 192.516 252.836 192.069 252.439L192.771 251.234C193.127 251.57 193.589 251.844 194.159 252.058C194.729 252.271 195.339 252.378 195.99 252.378C196.784 252.378 197.399 252.21 197.836 251.875C198.284 251.529 198.508 251.066 198.508 250.486C198.508 249.927 198.294 249.479 197.867 249.143C197.45 248.798 196.784 248.625 195.868 248.625H195.014V247.557L198.187 243.65L198.401 244.261H192.557V242.933H199.606V243.971L196.448 247.862L195.654 247.389H196.158C197.45 247.389 198.416 247.679 199.057 248.258C199.708 248.838 200.034 249.576 200.034 250.471C200.034 251.071 199.886 251.62 199.591 252.119C199.296 252.617 198.849 253.014 198.248 253.309C197.658 253.594 196.906 253.736 195.99 253.736ZM205.334 253.614V242.933H206.586L211.377 251.005H210.706L215.436 242.933H216.687L216.702 253.614H215.237L215.222 245.237H215.573L211.362 252.317H210.66L206.418 245.237H206.799V253.614H205.334ZM224.169 253.614V251.905L224.093 251.585V248.67C224.093 248.05 223.91 247.572 223.544 247.236C223.188 246.89 222.649 246.717 221.926 246.717C221.448 246.717 220.98 246.799 220.523 246.961C220.065 247.114 219.678 247.323 219.363 247.587L218.753 246.488C219.17 246.153 219.668 245.898 220.248 245.725C220.838 245.542 221.453 245.451 222.094 245.451C223.203 245.451 224.057 245.72 224.658 246.26C225.258 246.799 225.558 247.623 225.558 248.731V253.614H224.169ZM221.514 253.706C220.914 253.706 220.385 253.604 219.927 253.401C219.48 253.197 219.134 252.917 218.89 252.561C218.646 252.195 218.524 251.783 218.524 251.325C218.524 250.888 218.625 250.491 218.829 250.135C219.042 249.779 219.383 249.494 219.851 249.281C220.329 249.067 220.97 248.96 221.774 248.96H224.337V250.013H221.835C221.102 250.013 220.609 250.135 220.355 250.379C220.1 250.624 219.973 250.919 219.973 251.264C219.973 251.661 220.131 251.982 220.446 252.226C220.762 252.46 221.199 252.577 221.758 252.577C222.308 252.577 222.786 252.455 223.193 252.21C223.61 251.966 223.91 251.61 224.093 251.142L224.383 252.149C224.19 252.628 223.849 253.009 223.361 253.294C222.872 253.568 222.257 253.706 221.514 253.706ZM227.724 253.614V245.527H229.128V247.724L228.99 247.175C229.214 246.616 229.59 246.188 230.119 245.893C230.648 245.598 231.299 245.451 232.073 245.451V246.87C232.012 246.86 231.95 246.855 231.889 246.855C231.839 246.855 231.788 246.855 231.737 246.855C230.954 246.855 230.333 247.089 229.875 247.557C229.418 248.024 229.189 248.701 229.189 249.586V253.614H227.724ZM236.783 253.706C235.959 253.706 235.222 253.528 234.571 253.172C233.93 252.816 233.426 252.327 233.06 251.707C232.694 251.086 232.511 250.374 232.511 249.571C232.511 248.767 232.694 248.055 233.06 247.434C233.426 246.814 233.93 246.331 234.571 245.985C235.222 245.629 235.959 245.451 236.783 245.451C237.516 245.451 238.167 245.598 238.736 245.893C239.316 246.178 239.764 246.605 240.079 247.175L238.965 247.892C238.701 247.495 238.375 247.206 237.989 247.022C237.612 246.829 237.205 246.733 236.768 246.733C236.239 246.733 235.766 246.85 235.349 247.083C234.932 247.317 234.601 247.648 234.357 248.075C234.113 248.492 233.991 248.991 233.991 249.571C233.991 250.151 234.113 250.654 234.357 251.081C234.601 251.509 234.932 251.839 235.349 252.073C235.766 252.307 236.239 252.424 236.768 252.424C237.205 252.424 237.612 252.333 237.989 252.149C238.375 251.956 238.701 251.661 238.965 251.264L240.079 251.966C239.764 252.526 239.316 252.958 238.736 253.263C238.167 253.558 237.516 253.706 236.783 253.706ZM245.645 245.451C246.306 245.451 246.886 245.578 247.384 245.832C247.893 246.087 248.29 246.473 248.574 246.992C248.859 247.511 249.002 248.167 249.002 248.96V253.614H247.537V249.128C247.537 248.345 247.343 247.755 246.957 247.358C246.581 246.961 246.046 246.763 245.355 246.763C244.836 246.763 244.383 246.865 243.997 247.068C243.61 247.272 243.31 247.572 243.096 247.969C242.893 248.365 242.791 248.859 242.791 249.449V253.614H241.326V242.292H242.791V247.709L242.501 247.129C242.766 246.6 243.173 246.188 243.722 245.893C244.271 245.598 244.912 245.451 245.645 245.451ZM250.588 255.873L251.351 252.79L251.549 253.675C251.254 253.675 251.005 253.584 250.801 253.401C250.608 253.218 250.511 252.968 250.511 252.653C250.511 252.348 250.608 252.099 250.801 251.905C251.005 251.712 251.249 251.615 251.534 251.615C251.829 251.615 252.068 251.717 252.251 251.921C252.434 252.114 252.526 252.358 252.526 252.653C252.526 252.755 252.515 252.856 252.495 252.958C252.485 253.05 252.459 253.162 252.419 253.294C252.388 253.416 252.337 253.568 252.266 253.752L251.549 255.873H250.588ZM253.405 253.614V252.577L257.753 248.38C258.14 248.014 258.425 247.694 258.608 247.419C258.801 247.134 258.928 246.875 258.989 246.641C259.061 246.397 259.096 246.163 259.096 245.939C259.096 245.39 258.903 244.957 258.516 244.642C258.13 244.327 257.565 244.169 256.823 244.169C256.253 244.169 255.739 244.266 255.282 244.459C254.824 244.642 254.427 244.932 254.091 245.329L253.054 244.428C253.461 243.91 254.005 243.513 254.686 243.238C255.378 242.953 256.136 242.811 256.96 242.811C257.703 242.811 258.349 242.933 258.898 243.177C259.447 243.411 259.869 243.752 260.164 244.2C260.47 244.647 260.622 245.176 260.622 245.786C260.622 246.132 260.576 246.473 260.485 246.809C260.393 247.145 260.22 247.501 259.966 247.877C259.712 248.253 259.345 248.675 258.867 249.143L254.992 252.882L254.625 252.287H261.08V253.614H253.405ZM266.139 253.736C265.304 253.736 264.557 253.523 263.896 253.095C263.245 252.668 262.726 252.048 262.339 251.234C261.963 250.42 261.775 249.433 261.775 248.274C261.775 247.114 261.963 246.127 262.339 245.313C262.726 244.5 263.245 243.879 263.896 243.452C264.557 243.025 265.304 242.811 266.139 242.811C266.963 242.811 267.705 243.025 268.366 243.452C269.028 243.879 269.546 244.5 269.923 245.313C270.299 246.127 270.487 247.114 270.487 248.274C270.487 249.433 270.299 250.42 269.923 251.234C269.546 252.048 269.028 252.668 268.366 253.095C267.705 253.523 266.963 253.736 266.139 253.736ZM266.139 252.378C266.698 252.378 267.186 252.226 267.603 251.921C268.031 251.615 268.361 251.158 268.595 250.547C268.839 249.937 268.961 249.179 268.961 248.274C268.961 247.368 268.839 246.61 268.595 246C268.361 245.39 268.031 244.932 267.603 244.627C267.186 244.322 266.698 244.169 266.139 244.169C265.579 244.169 265.086 244.322 264.659 244.627C264.231 244.932 263.896 245.39 263.651 246C263.417 246.61 263.3 247.368 263.3 248.274C263.3 249.179 263.417 249.937 263.651 250.547C263.896 251.158 264.231 251.615 264.659 251.921C265.086 252.226 265.579 252.378 266.139 252.378ZM271.239 253.614V252.577L275.588 248.38C275.975 248.014 276.259 247.694 276.443 247.419C276.636 247.134 276.763 246.875 276.824 246.641C276.895 246.397 276.931 246.163 276.931 245.939C276.931 245.39 276.738 244.957 276.351 244.642C275.964 244.327 275.4 244.169 274.657 244.169C274.088 244.169 273.574 244.266 273.116 244.459C272.658 244.642 272.262 244.932 271.926 245.329L270.888 244.428C271.295 243.91 271.839 243.513 272.521 243.238C273.213 242.953 273.971 242.811 274.795 242.811C275.537 242.811 276.183 242.933 276.732 243.177C277.282 243.411 277.704 243.752 277.999 244.2C278.304 244.647 278.457 245.176 278.457 245.786C278.457 246.132 278.411 246.473 278.319 246.809C278.228 247.145 278.055 247.501 277.801 247.877C277.546 248.253 277.18 248.675 276.702 249.143L272.826 252.882L272.46 252.287H278.914V253.614H271.239ZM283.073 253.736C282.32 253.736 281.587 253.619 280.875 253.385C280.173 253.151 279.599 252.836 279.151 252.439L279.853 251.234C280.209 251.57 280.672 251.844 281.242 252.058C281.811 252.271 282.416 252.378 283.057 252.378C283.871 252.378 284.497 252.205 284.934 251.859C285.372 251.514 285.59 251.051 285.59 250.471C285.59 250.074 285.494 249.728 285.3 249.433C285.107 249.138 284.771 248.915 284.293 248.762C283.825 248.599 283.179 248.518 282.355 248.518H279.929L280.494 242.933H286.521V244.261H281.058L281.852 243.513L281.409 247.923L280.616 247.19H282.676C283.744 247.19 284.604 247.328 285.255 247.602C285.906 247.877 286.379 248.258 286.674 248.747C286.969 249.225 287.116 249.779 287.116 250.41C287.116 251.02 286.969 251.58 286.674 252.088C286.379 252.587 285.931 252.989 285.331 253.294C284.741 253.589 283.988 253.736 283.073 253.736Z" fill="white"/>
<defs>
<filter id="filter0_f_643_5768" x="212.833" y="0.90184" width="190.736" height="184.717" filterUnits="userSpaceOnUse" color-interpolation-filters="sRGB">
<feFlood flood-opacity="0" result="BackgroundImageFix"/>
<feBlend mode="normal" in="SourceGraphic" in2="BackgroundImageFix" result="shape"/>
<feGaussianBlur stdDeviation="38.147" result="effect1_foregroundBlur_643_5768"/>
</filter>
</defs>
</svg>
