<svg width="116" height="24" viewBox="0 0 116 24" fill="none" xmlns="http://www.w3.org/2000/svg">
<g clip-path="url(#clip0_83_10879)">
<g clip-path="url(#clip1_83_10879)">
<g clip-path="url(#clip2_83_10879)">
<mask id="mask0_83_10879" style="mask-type:luminance" maskUnits="userSpaceOnUse" x="0" y="0" width="116" height="24">
<path d="M115.997 0.000976562H0.0467529V23.9984H115.997V0.000976562Z" fill="white"/>
</mask>
<g mask="url(#mask0_83_10879)">
<path d="M40.2172 18.4954H36.5299C35.9011 18.4954 35.3866 17.9801 35.3866 17.3503V7.10132C35.3866 6.47151 35.9011 5.95617 36.5299 5.95617H40.2172C43.5044 5.95617 46.1628 8.76176 46.1628 12.2258C46.1628 15.6898 43.5044 18.4954 40.2172 18.4954ZM40.2172 8.24642H37.6733V16.2052H40.2172C42.2467 16.2052 43.9048 14.4302 43.9048 12.2258C43.9048 10.0214 42.2467 8.24642 40.2172 8.24642ZM54.0806 18.4954C53.4517 18.4954 52.9372 17.9801 52.9372 17.3503V7.10132C52.9372 6.47151 53.4517 5.95617 54.0806 5.95617C54.7094 5.95617 55.2239 6.47151 55.2239 7.10132V17.3503C55.2239 17.9801 54.7094 18.4954 54.0806 18.4954ZM68.6012 13.5714C67.9724 13.5714 67.4579 13.056 67.4579 12.4262C67.4579 11.7964 67.9724 11.281 68.6012 11.281H71.4024C72.0313 11.281 72.546 11.7964 72.546 12.4262V16.0048C72.546 16.3197 72.4316 16.606 72.2031 16.835C71.0882 17.8942 69.63 18.4954 68.0867 18.4954C64.7136 18.4954 62.0268 15.6612 62.0268 12.2258C62.0268 8.81904 64.7136 5.95617 68.0867 5.95617C69.63 5.95617 71.0882 6.55739 72.2031 7.61661C72.6601 8.04605 72.6889 8.76176 72.2311 9.21982C71.8027 9.67788 71.0882 9.70649 70.6305 9.24844C69.9159 8.59001 69.0298 8.21783 68.0867 8.21783C66.0001 8.21783 64.2851 9.99278 64.2851 12.1972C64.2851 14.4016 66.0001 16.1765 68.0867 16.1765C68.8867 16.1765 69.6587 15.9189 70.2875 15.4322V13.5141H68.6012V13.5714ZM80.6349 18.4954C80.006 18.4954 79.4913 17.9801 79.4913 17.3503V7.10132C79.4913 6.47151 80.006 5.95617 80.6349 5.95617C81.2638 5.95617 81.7785 6.47151 81.7785 7.10132V17.3503C81.7785 17.9801 81.2638 18.4954 80.6349 18.4954ZM98.1857 8.24642H94.9844V17.3503C94.9844 17.9801 94.4697 18.4954 93.8409 18.4954C93.212 18.4954 92.6973 17.9801 92.6973 17.3503V8.24642H89.496C88.8671 8.24642 88.3524 7.73115 88.3524 7.10132C88.3524 6.47151 88.8671 5.95617 89.496 5.95617H98.1857C98.8148 5.95617 99.3286 6.47151 99.3286 7.10132C99.3286 7.73115 98.8148 8.24642 98.1857 8.24642ZM113.964 9.2771C113.307 8.76176 112.42 8.41824 111.448 8.27508C110.534 8.16055 109.648 8.27508 109.019 8.56133C108.19 8.96219 108.19 9.47746 108.19 9.67788C108.161 10.2791 108.362 10.4795 108.704 10.6512C109.248 10.9089 110.162 10.9948 111.02 11.0807C112.078 11.1952 113.163 11.281 114.079 11.7105C115.308 12.283 115.936 13.3709 115.908 14.8024C115.879 16.2052 115.05 17.2931 113.764 17.8943C112.649 18.4095 111.249 18.5241 110.076 18.3809C108.704 18.2092 107.418 17.6938 106.447 16.9209C105.961 16.5201 105.875 15.8044 106.246 15.3176C106.647 14.831 107.332 14.7451 107.847 15.1173C108.504 15.6326 109.391 15.9761 110.363 16.0906C111.277 16.2052 112.163 16.0906 112.792 15.8044C113.135 15.6326 113.621 15.3463 113.621 14.6878C113.649 14.0867 113.45 13.8863 113.107 13.7145C112.563 13.4568 111.648 13.3709 110.791 13.285C109.734 13.1706 108.647 13.0847 107.732 12.6552C106.503 12.0827 105.875 10.9948 105.903 9.56334C105.932 8.16055 106.761 7.07266 108.047 6.47151C109.076 5.98479 110.363 5.81302 111.706 5.98479C113.078 6.15656 114.364 6.67188 115.336 7.44484C115.822 7.84564 115.908 8.56133 115.536 9.04807C115.164 9.592 114.45 9.67788 113.964 9.2771Z" fill="#C0C0C0"/>
<path fill-rule="evenodd" clip-rule="evenodd" d="M22.8388 19.6687C22.5243 20.0695 21.924 20.0982 21.5524 19.7833C21.1522 19.4684 21.1236 18.8671 21.438 18.495C22.8959 16.72 23.7818 14.4869 23.7818 11.9963C23.8105 7.78791 21.2379 4.18074 17.6364 2.63479C17.6364 2.63479 17.6078 2.63479 17.6078 2.60617C17.1504 2.40576 16.9503 1.86182 17.1504 1.40377C17.3505 0.945718 17.8937 0.745317 18.351 0.945718C22.6387 2.77795 25.6399 7.0436 25.6399 11.9677C25.6399 14.8878 24.5823 17.5788 22.8388 19.6687ZM14.3493 1.86182L8.03214 1.8332H8.00361C7.48904 1.8332 7.08891 1.40377 7.08891 0.888458C7.11744 0.401776 7.51765 0.000976562 8.03214 0.000976562H13.6632C13.9204 0.000976562 14.2063 0.000976562 14.4635 0.029605C14.9495 0.0582334 15.3211 0.430404 15.3211 0.917087C15.3211 0.945718 15.3211 1.00297 15.3211 1.0316C15.3211 1.51828 14.8637 1.91909 14.3493 1.86182ZM18.7797 5.44038C18.9798 5.61215 19.1227 5.86982 19.1513 6.12747C19.1513 6.35649 19.0941 6.58555 18.9512 6.7573C18.6369 7.1581 18.0651 7.21535 17.6649 6.90045C16.5788 6.04159 15.2068 5.55489 13.7204 5.55489H3.20147H3.17289C2.65838 5.55489 2.2582 5.12547 2.2582 4.61016C2.2582 4.09484 2.68696 3.69404 3.20147 3.69404H13.6918C15.6069 3.69404 17.3791 4.35251 18.7797 5.44038ZM18.2653 11.9677C18.2653 14.4869 16.2072 16.6055 13.6632 16.5768H10.2331H10.2046C9.69005 16.5768 9.28985 16.1475 9.28985 15.6321V11.9677C9.28985 11.4523 9.69005 11.0515 10.2046 11.023H10.2331C10.7477 11.023 11.1478 11.4523 11.1478 11.9677V14.716H13.6632C15.2068 14.716 16.4073 13.485 16.4073 11.9677C16.4073 10.4217 15.1781 9.21936 13.6632 9.21936H1.02909H1.0005C0.485991 9.21936 0.0858154 8.78992 0.0858154 8.27458C0.0858154 7.75931 0.514575 7.35851 1.02909 7.35851H13.6918C16.2072 7.35851 18.2653 9.44839 18.2653 11.9677ZM6.05987 12.9124H3.23006C2.71553 12.9124 2.31536 12.483 2.34395 11.9677C2.34395 11.4523 2.77272 11.0515 3.28723 11.0802H6.08844C6.60295 11.0802 7.00315 11.5096 7.00315 11.9963V12.0249C6.97455 12.5402 6.5744 12.9411 6.05987 12.9124ZM1.14342 14.7447H6.08844C6.60295 14.7447 7.00315 15.1454 7.0317 15.6608V15.6894C7.0317 16.2047 6.60295 16.6055 6.08844 16.6055H1.14342H1.11484C0.600328 16.6055 0.200151 16.176 0.200151 15.6608C0.228735 15.1454 0.657496 14.7447 1.14342 14.7447ZM3.17289 18.4091H13.6632C17.2362 18.4091 20.0946 15.5462 20.0946 11.9677C20.0946 11.2233 19.9517 10.5076 19.723 9.82051C19.5515 9.33385 19.8087 8.81851 20.2947 8.64676C20.7807 8.47499 21.2951 8.73264 21.4666 9.21936C21.781 10.0782 21.9525 11.023 21.9525 11.9677C21.9525 16.5482 18.2366 20.2413 13.6918 20.2413H3.17289H3.1443C2.62979 20.2413 2.22962 19.8119 2.22962 19.2965C2.2582 18.8099 2.68696 18.4091 3.17289 18.4091ZM8.06076 22.1021H13.6918C15.464 22.1021 17.1219 21.6441 18.5511 20.8711C18.694 20.7852 18.8369 20.7566 18.9798 20.7566C19.4943 20.7566 19.8945 21.1574 19.9231 21.6727C19.9231 22.0162 19.7516 22.3312 19.4372 22.5029C17.7507 23.4478 15.7785 23.9629 13.6918 23.9629H8.03214C7.51765 23.9629 7.11744 23.5337 7.11744 23.0183C7.14605 22.5029 7.54625 22.1021 8.06076 22.1021Z" fill="#C0C0C0"/>
</g>
</g>
</g>
</g>
<defs>
<clipPath id="clip0_83_10879">
<rect width="115.953" height="24" fill="white" transform="translate(0.0467529)"/>
</clipPath>
<clipPath id="clip1_83_10879">
<rect width="115.95" height="24" fill="white" transform="translate(0.0467529)"/>
</clipPath>
<clipPath id="clip2_83_10879">
<rect width="115.95" height="23.9974" fill="white" transform="translate(0.0467529 0.000976562)"/>
</clipPath>
</defs>
</svg>
