<svg width="26" height="27" viewBox="0 0 26 27" fill="none" xmlns="http://www.w3.org/2000/svg">
<path d="M17.6211 15.3477C18.0411 15.3477 18.3828 15.6848 18.3828 16.0992H19.9062C19.9062 15.1106 19.2694 14.2677 18.3828 13.9547V12.3008H16.8594V13.9552C15.9728 14.2697 15.3359 15.1163 15.3359 16.1094C15.3359 17.3694 16.3611 18.3945 17.6211 18.3945C18.0411 18.3945 18.3828 18.7362 18.3828 19.1562C18.3828 19.5763 18.0411 19.918 17.6211 19.918C17.2011 19.918 16.8594 19.5763 16.8594 19.1562H15.3359C15.3359 20.1493 15.9728 20.996 16.8594 21.3104V22.9547H18.3828V21.3104C19.2694 20.996 19.9062 20.1493 19.9062 19.1562C19.9062 17.8962 18.8811 16.8711 17.6211 16.8711C17.2011 16.8711 16.8594 16.5294 16.8594 16.1094C16.8594 15.6894 17.2011 15.3477 17.6211 15.3477Z" fill="white"/>
<path d="M17.6211 9.25391C17.3643 9.25391 17.1103 9.2662 16.8594 9.28889V4.58203C16.8594 3.26116 15.9175 2.06277 14.2073 1.20767C12.6648 0.436453 10.6311 0.0117188 8.48047 0.0117188C6.32552 0.0117188 4.27543 0.43559 2.70781 1.20518C0.961695 2.06252 0 3.26172 0 4.58203V18.3945C0 19.7148 0.961695 20.9141 2.70781 21.7714C4.27543 22.541 6.32552 22.9648 8.48047 22.9648C9.34421 22.9648 10.1891 22.8959 11 22.7615C12.5341 24.7376 14.9315 26.0117 17.6211 26.0117C22.2412 26.0117 26 22.2529 26 17.6328C26 13.0127 22.2412 9.25391 17.6211 9.25391ZM3.37924 2.57272C4.72225 1.91332 6.58155 1.53516 8.48047 1.53516C12.5205 1.53516 15.3359 3.14091 15.3359 4.58203C15.3359 6.02315 12.5205 7.62891 8.48047 7.62891C6.58155 7.62891 4.72225 7.25074 3.37924 6.59134C2.19984 6.01234 1.52344 5.27997 1.52344 4.58203C1.52344 3.88409 2.19984 3.15173 3.37924 2.57272ZM1.52344 7.23611C1.86489 7.49698 2.26038 7.7392 2.70781 7.95888C4.27543 8.72847 6.32552 9.15234 8.48047 9.15234C10.6311 9.15234 12.6648 8.72761 14.2073 7.95639C14.6318 7.74413 15.0088 7.51074 15.3359 7.25957V9.57063C13.8178 10.0015 12.474 10.8508 11.4371 11.9852C10.509 12.1945 9.5157 12.3008 8.48047 12.3008C6.58155 12.3008 4.72225 11.9226 3.37924 11.2632C2.19984 10.6842 1.52344 9.95184 1.52344 9.25391V7.23611ZM1.52344 11.908C1.86489 12.1689 2.26038 12.4111 2.70781 12.6308C4.27543 13.4003 6.32552 13.8242 8.48047 13.8242C9.06857 13.8242 9.64549 13.7927 10.2081 13.7308C9.7076 14.6779 9.38331 15.7317 9.27916 16.8485C9.01453 16.8631 8.74773 16.8711 8.48047 16.8711C6.58155 16.8711 4.72225 16.4929 3.37924 15.8335C2.19984 15.2545 1.52344 14.5222 1.52344 13.8242V11.908ZM8.48047 21.4414C6.58155 21.4414 4.72225 21.0632 3.37924 20.4038C2.19984 19.8248 1.52344 19.0925 1.52344 18.3945V16.4783C1.86489 16.7391 2.26038 16.9813 2.70781 17.201C4.27543 17.9707 6.32552 18.3945 8.48047 18.3945C8.74605 18.3945 9.01159 18.3878 9.2754 18.3748C9.36884 19.4345 9.66027 20.4381 10.1126 21.3484C9.58141 21.4097 9.03586 21.4414 8.48047 21.4414ZM17.6211 24.4883C13.841 24.4883 10.7656 21.4129 10.7656 17.6328C10.7656 13.8527 13.841 10.7773 17.6211 10.7773C21.4012 10.7773 24.4766 13.8527 24.4766 17.6328C24.4766 21.4129 21.4012 24.4883 17.6211 24.4883Z" fill="white"/>
</svg>
