<svg width="62" height="24" viewBox="0 0 62 24" fill="none" xmlns="http://www.w3.org/2000/svg">
<g clip-path="url(#clip0_83_10850)">
<g clip-path="url(#clip1_83_10850)">
<g clip-path="url(#clip2_83_10850)">
<path d="M54.4593 3.41057C50.6701 3.41057 47.5867 6.50729 47.5867 10.3142C47.5867 14.1211 50.6701 17.2178 54.4593 17.2178C58.2475 17.2178 61.33 14.1211 61.33 10.3142C61.33 6.50729 58.2475 3.41057 54.4593 3.41057ZM54.4593 13.946C52.4665 13.946 50.8435 12.315 50.8435 10.3142C50.8435 8.31252 52.4665 6.68239 54.4593 6.68239C56.4503 6.68239 58.0742 8.31252 58.0742 10.3142C58.0742 12.3159 56.452 13.946 54.4593 13.946ZM34.2221 8.91605L33.0204 8.31341C32.4987 8.05387 32.1716 7.85299 32.04 7.70456C31.9146 7.57303 31.8433 7.39917 31.84 7.21747C31.84 6.9846 31.9449 6.78816 32.1511 6.63528C32.3556 6.47529 32.6462 6.40241 33.0151 6.40241C33.6897 6.40241 34.4372 6.8095 35.2603 7.6299L37.2886 5.59178C36.7903 4.9131 36.1385 4.36184 35.3865 3.98298C34.6444 3.6096 33.8245 3.41711 32.9938 3.42124C31.7556 3.42124 30.7334 3.78655 29.937 4.52251C29.1415 5.25847 28.7415 6.14286 28.7415 7.18014C28.7415 8.78894 29.7948 10.1293 31.9085 11.1933L33.0151 11.7488C33.9688 12.2314 34.4435 12.723 34.4435 13.2314C34.4435 13.5069 34.311 13.7451 34.0479 13.9567C33.7848 14.1691 33.4364 14.2695 33.0044 14.2695C32.6045 14.2695 32.1458 14.1318 31.6294 13.8518C31.1148 13.5763 30.657 13.206 30.2801 12.7603L28.2625 14.9682C29.4002 16.4614 30.9174 17.2134 32.8249 17.2134C34.2586 17.2134 35.4025 16.8214 36.2505 16.0428C37.1038 15.265 37.5304 14.2909 37.5304 13.1256C37.5304 12.2519 37.294 11.4848 36.8247 10.8333C36.3509 10.1818 35.4816 9.54712 34.2221 8.91694V8.91605ZM13.8179 15.7139V3.68522H10.5559V4.49051C9.45673 3.78403 8.17735 3.4091 6.87074 3.41057C3.0825 3.41057 0 6.50729 0 10.3142C0 14.1211 3.0825 17.2178 6.87163 17.2178C8.16256 17.2198 9.42742 16.8544 10.5185 16.1645C10.5185 16.2703 10.5132 16.3654 10.5132 16.4294C10.5132 18.4302 8.89018 20.0612 6.89829 20.0612C6.22101 20.0597 5.55795 19.8668 4.98551 19.5048L3.37226 22.3429C4.43604 22.9918 5.65756 23.3361 6.90363 23.3384C10.6928 23.3384 13.8179 20.2408 13.8179 16.4339C13.8179 16.2863 13.8277 15.8517 13.8179 15.7139ZM6.87163 13.9451C4.88062 13.9451 3.25671 12.315 3.25671 10.3142C3.25671 8.31252 4.87973 6.68239 6.87163 6.68239C8.86352 6.68239 10.4865 8.31252 10.4865 10.3142C10.4865 12.315 8.86352 13.946 6.87163 13.946V13.9451ZM26.8119 3.68078H23.5338V10.244C23.5392 11.1764 23.5392 12.7861 22.8548 13.474C22.5277 13.802 22.1695 14.0989 21.4157 14.0989C20.6567 14.0989 20.2985 13.802 19.9722 13.474C19.287 12.7852 19.2923 11.171 19.2967 10.244V3.68078H16.0196V10.2244C16.0089 11.5737 15.9929 14.0784 17.6373 15.7406C18.6017 16.7147 19.7509 17.2125 21.4104 17.2125C23.0707 17.2125 24.2191 16.7201 25.1835 15.7406C26.8279 14.0784 26.8119 11.5683 26.8012 10.2244L26.8119 3.68078ZM45.3878 13.3585C45.1247 13.5594 44.4865 14.0047 43.7647 13.9042C43.1745 13.8242 42.6955 13.3905 42.6217 11.9399V6.49751H46.4739V3.67011H42.6217V0.000976562H39.3543V0.720937H39.349V11.5115C39.349 13.2269 39.7809 17.2125 43.7594 17.2125C45.7726 17.1814 46.9948 16.0854 47.5068 15.657L47.5752 15.6037L45.6144 13.1789C45.6091 13.1834 45.4722 13.2945 45.3878 13.3585Z" fill="#C0C0C0"/>
</g>
</g>
</g>
<defs>
<clipPath id="clip0_83_10850">
<rect width="61.3317" height="24" fill="white"/>
</clipPath>
<clipPath id="clip1_83_10850">
<rect width="61.33" height="24" fill="white"/>
</clipPath>
<clipPath id="clip2_83_10850">
<rect width="61.33" height="23.9987" fill="white" transform="translate(0 0.000976562)"/>
</clipPath>
</defs>
</svg>
