<svg width="26" height="22" viewBox="0 0 26 22" fill="none" xmlns="http://www.w3.org/2000/svg">
<path d="M16.8552 2.86107L6.87883 6.8759C6.66731 6.96102 6.52872 7.16614 6.52872 7.39417V11.8105L5.78243 11.0895C5.63911 10.951 5.43292 10.8994 5.24121 10.954L4.56459 11.1468V6.53153L14.191 2.65757L13.7739 1.62109L3.79738 5.63582C3.58586 5.72094 3.44727 5.92606 3.44727 6.15409V11.8868C3.44727 12.062 3.52949 12.2271 3.66935 12.3327C3.80916 12.4383 3.99057 12.4722 4.15902 12.4241L5.2377 12.1167L6.6992 13.5287C6.80544 13.6313 6.94536 13.6856 7.08746 13.6856C7.16099 13.6856 7.23519 13.671 7.30558 13.6411C7.51192 13.5535 7.64599 13.3511 7.64599 13.1269V7.7715L17.2724 3.89755L16.8552 2.86107Z" fill="white"/>
<path d="M2.25015 14.9902L3.79778 15.613C3.86614 15.6405 3.93668 15.6535 4.00616 15.6535C4.22743 15.6535 4.43692 15.5212 4.52462 15.3033C4.6398 15.0171 4.50111 14.6917 4.21488 14.5765L2.66725 13.9536C2.38113 13.8384 2.05564 13.9771 1.94041 14.2633C1.82528 14.5496 1.96393 14.875 2.25015 14.9902Z" fill="white"/>
<path d="M20.7201 4.2486L10.7436 0.233772C10.6098 0.179889 10.4604 0.179889 10.3265 0.233772L0.350114 4.2486C0.138593 4.33372 0 4.53884 0 4.76682V16.4492C0 16.6772 0.138593 16.8824 0.350114 16.9675L10.3265 20.9823C10.3934 21.0092 10.4643 21.0226 10.5351 21.0226C10.6059 21.0226 10.6767 21.0092 10.7436 20.9823L17.9193 18.0946L17.8504 17.2852L17.9438 16.8803L11.0937 19.637V9.15899L19.9529 5.59381V14.3009L21.0702 13.7966V4.76682C21.0702 4.53884 20.9316 4.33372 20.7201 4.2486ZM9.97642 19.637L1.11728 16.0718V5.59381L9.97642 9.15899V19.637ZM10.5351 8.17944L2.05498 4.76682L10.5351 1.3542L19.0151 4.76682L10.5351 8.17944Z" fill="white"/>
<path d="M22.5653 16.2105L21.2546 17.5212L20.6928 16.9594C20.4745 16.7412 20.1209 16.7412 19.9027 16.9594C19.6845 17.1775 19.6845 17.5313 19.9027 17.7494L20.8596 18.7063C20.9644 18.8111 21.1065 18.87 21.2546 18.87C21.4028 18.87 21.5449 18.8111 21.6496 18.7063L23.3553 17.0006C23.5735 16.7824 23.5735 16.4287 23.3553 16.2105C23.1372 15.9923 22.7835 15.9924 22.5653 16.2105Z" fill="white"/>
<path d="M24.7212 14.3657C23.0161 12.6606 20.2416 12.6606 18.5365 14.3657C16.8314 16.0709 16.8314 18.8453 18.5365 20.5505C19.3625 21.3765 20.4607 21.8314 21.6289 21.8314C22.797 21.8314 23.8952 21.3765 24.7213 20.5505C26.4263 18.8453 26.4263 16.0709 24.7212 14.3657ZM23.9312 19.7604C23.3162 20.3754 22.4986 20.7141 21.6289 20.7141C20.7592 20.7141 19.9415 20.3754 19.3265 19.7604C18.0571 18.4909 18.0571 16.4253 19.3265 15.1558C19.9614 14.521 20.795 14.2037 21.6289 14.2037C22.4626 14.2037 23.2965 14.5211 23.9312 15.1558C25.2005 16.4253 25.2006 18.491 23.9312 19.7604Z" fill="white"/>
</svg>
