<svg width="18" height="18" viewBox="0 0 18 18" fill="none" xmlns="http://www.w3.org/2000/svg">
<path fill-rule="evenodd" clip-rule="evenodd" d="M5.96191 7.98062C5.96191 6.30305 7.32185 4.94312 8.99941 4.94312C10.677 4.94312 12.0369 6.30305 12.0369 7.98062C12.0369 9.65818 10.677 11.0181 8.99941 11.0181C7.32185 11.0181 5.96191 9.65818 5.96191 7.98062ZM11.0244 7.98061C11.0244 6.86224 10.1178 5.95561 8.99941 5.95561C7.88104 5.95561 6.97441 6.86224 6.97441 7.98061C6.97441 9.09899 7.88104 10.0056 8.99941 10.0056C10.1178 10.0056 11.0244 9.09899 11.0244 7.98061Z" fill="#F79533"/>
<path fill-rule="evenodd" clip-rule="evenodd" d="M2.9248 7.98052C2.9248 4.59713 5.63164 1.90552 8.9998 1.90552C12.368 1.90552 15.0748 4.59713 15.0748 7.98052C15.0748 9.05535 14.7473 10.1243 14.1532 11.1775C13.671 12.0323 13.0252 12.8561 12.2566 13.6457C11.668 14.2503 11.0406 14.8013 10.4129 15.2901C10.1927 15.4616 9.98756 15.6136 9.80228 15.7447L9.78271 15.7585C9.72462 15.7995 9.67212 15.8358 9.62565 15.8674L9.58654 15.8938L9.55431 15.9152C9.21751 16.1356 8.7821 16.1356 8.4453 15.9152C8.43329 15.9073 8.41505 15.8952 8.39092 15.8789L8.3255 15.8342C8.28627 15.8072 8.24347 15.7774 8.19733 15.7447L8.13817 15.7026C7.96869 15.5814 7.7837 15.4436 7.58667 15.2901C6.95902 14.8013 6.33161 14.2503 5.74304 13.6457C4.97439 12.8561 4.32863 12.0323 3.84645 11.1775C3.25234 10.1243 2.9248 9.05535 2.9248 7.98052ZM14.0623 7.98052C14.0623 5.14337 11.7957 2.91802 8.9998 2.91802C6.20386 2.91802 3.9373 5.14337 3.9373 7.98052C3.9373 11.6412 8.70061 14.8688 8.98641 15.0591L8.9998 15.068C8.9998 15.068 14.0623 11.7544 14.0623 7.98052Z" fill="#F79533"/>
</svg>
