<svg width="28" height="28" viewBox="0 0 28 28" fill="none" xmlns="http://www.w3.org/2000/svg">
<g clip-path="url(#clip0_223_266)">
<path opacity="0.981" fill-rule="evenodd" clip-rule="evenodd" d="M27.9727 5.27734C27.9727 6.40757 27.9727 7.53774 27.9727 8.66797C23.9748 11.617 19.9826 14.5793 15.9961 17.5547C14.6471 18.4662 13.2982 18.4662 11.9492 17.5547C7.97327 14.5648 3.9811 11.6026 -0.0273438 8.66797C-0.0273438 7.53774 -0.0273438 6.40757 -0.0273438 5.27734C0.327146 3.85648 1.22037 2.97237 2.65234 2.625C10.1992 2.58854 17.7461 2.58854 25.293 2.625C26.7247 2.97215 27.618 3.85627 27.9727 5.27734ZM3.25391 4.78516C10.3998 4.77604 17.5456 4.78516 24.6914 4.8125C25.1911 4.83879 25.5283 5.08488 25.7031 5.55078C25.7866 6.18642 25.8049 6.82445 25.7578 7.46484C22.0482 10.2266 18.3385 12.9883 14.6289 15.75C14.1914 16.0781 13.7539 16.0781 13.3164 15.75C9.60679 12.9883 5.89712 10.2266 2.1875 7.46484C2.14044 6.82445 2.15867 6.18642 2.24219 5.55078C2.429 5.08904 2.76624 4.83383 3.25391 4.78516Z" fill="white"/>
<path opacity="0.994" fill-rule="evenodd" clip-rule="evenodd" d="M-0.0273438 11.293C0.699387 11.8097 1.41944 12.3384 2.13281 12.8789C2.15104 15.9414 2.16927 19.0039 2.1875 22.0664C2.2513 22.7135 2.60677 23.069 3.25391 23.1328C10.3998 23.1693 17.5456 23.1693 24.6914 23.1328C25.3385 23.069 25.694 22.7135 25.7578 22.0664C25.776 19.0039 25.7943 15.9414 25.8125 12.8789C26.5259 12.3384 27.2459 11.8097 27.9727 11.293C27.9727 15.0846 27.9727 18.8763 27.9727 22.668C27.618 24.089 26.7247 24.9732 25.293 25.3203C17.7461 25.3568 10.1992 25.3568 2.65234 25.3203C1.22059 24.9732 0.327356 24.089 -0.0273438 22.668C-0.0273438 18.8763 -0.0273438 15.0846 -0.0273438 11.293Z" fill="white"/>
</g>
<defs>
<clipPath id="clip0_223_266">
<rect width="28" height="28" fill="white"/>
</clipPath>
</defs>
</svg>
