<svg width="32" height="32" viewBox="0 0 32 32" fill="none" xmlns="http://www.w3.org/2000/svg">
<g clip-path="url(#clip0_1510_3063)">
<path d="M3.95759 9.46373L2.89844 7.69866C2.62835 7.24888 2.69922 6.67299 3.07031 6.30246L6.30246 3.07031C6.67299 2.70089 7.24944 2.62891 7.69866 2.89844L3.95759 9.46373ZM3.95759 9.46373C3.49944 10.3052 3.13281 11.1897 2.86105 12.1066L3.95759 9.46373ZM29.0431 12.135L29.0593 12.1898L29.1147 12.2036L31.1102 12.7025C31.1102 12.7025 31.1102 12.7025 31.1102 12.7025C31.5741 12.8186 31.9 13.2356 31.9 13.7143V16C31.9 16.5759 31.4331 17.0429 30.8571 17.0429C30.2812 17.0429 29.8143 16.5759 29.8143 16V14.6066V14.5285L29.7385 14.5096L27.9567 14.0643C27.58 13.9701 27.2871 13.6743 27.196 13.2968C26.9156 12.132 26.4545 11.0219 25.8275 9.99746L25.8274 9.99741C25.6243 9.6659 25.6222 9.2494 25.8224 8.91585L26.7682 7.3394L26.8084 7.27245L26.7532 7.21724L24.7828 5.24681L24.7276 5.1916L24.6606 5.23177L23.0842 6.17764L23.0839 6.17779C22.7512 6.37876 22.3348 6.37637 22.0026 6.17258L22.0025 6.17252C20.978 5.54544 19.8679 5.08494 18.7032 4.80402C18.3258 4.71285 18.0299 4.42002 17.9357 4.04328L17.4904 2.26147L17.4715 2.18571H17.3934H14.6066H14.5285L14.5096 2.26147L14.0643 4.04327C14.0643 4.04327 14.0643 4.04327 14.0643 4.04328C13.9701 4.42001 13.6743 4.71284 13.2969 4.80402C12.1321 5.08493 11.022 5.54543 9.99746 6.17252L9.99726 6.17265C9.66634 6.37629 9.24998 6.37884 8.91598 6.17772L8.91585 6.17764L7.3394 5.23177L7.27245 5.1916L7.21724 5.24681L5.24681 7.21724L5.1916 7.27245L5.23177 7.3394L6.17764 8.91585C6.37777 9.2494 6.37574 9.6659 6.17255 9.99741L6.17252 9.99746C5.54546 11.0219 5.08439 12.132 4.80402 13.2968C4.71285 13.6742 4.42002 13.9701 4.04328 14.0643C4.04327 14.0643 4.04327 14.0643 4.04327 14.0643L2.26147 14.5096L2.18571 14.5285V14.6066V17.3934V17.4715L2.26147 17.4904L4.04327 17.9357C4.42002 18.0299 4.71285 18.3258 4.80402 18.7032C5.08439 19.868 5.54546 20.9781 6.17252 22.0025L6.17255 22.0026C6.37574 22.3341 6.37777 22.7506 6.17764 23.0842L5.23177 24.6606L5.1916 24.7276L5.24681 24.7828L7.21724 26.7532L7.27245 26.8084L7.3394 26.7682L8.91582 25.8224C9.40937 25.5264 10.0504 25.6855 10.3467 26.1798L10.3467 26.1798C10.6431 26.6738 10.4832 27.3143 9.98929 27.6107L7.64725 29.0158C7.64724 29.0158 7.64723 29.0158 7.64721 29.0158C7.48062 29.1157 7.29478 29.1645 7.11105 29.1645C6.84104 29.1645 6.5743 29.0601 6.37317 28.859L3.14102 25.6268L3.14097 25.6268C2.8024 25.2887 2.7377 24.7633 2.98417 24.3528L2.98418 24.3528L4.04334 22.5877L4.07276 22.5387L4.04542 22.4885C3.59064 21.6531 3.2267 20.7751 2.95693 19.865L2.9407 19.8102L2.8853 19.7964L0.889792 19.2975C0.4259 19.1814 0.1 18.7644 0.1 18.2857V13.7143C0.1 13.2356 0.425888 12.8186 0.889767 12.7025C0.889775 12.7025 0.889784 12.7025 0.889792 12.7025L2.8853 12.2036L2.9407 12.1898L2.95693 12.135C3.2267 11.2249 3.59064 10.3469 4.04542 9.51154L4.07276 9.46131L4.04334 9.41227L2.98418 7.64721L2.98417 7.64718C2.7377 7.23675 2.8024 6.71128 3.14097 6.37322L3.14102 6.37317L6.37306 3.14113C6.37309 3.1411 6.37311 3.14108 6.37314 3.14105C6.71137 2.80391 7.23751 2.73836 7.64721 2.98419L9.41227 4.04334L9.46131 4.07276L9.51154 4.04542C10.3469 3.59064 11.2249 3.2267 12.135 2.95693L12.1898 2.9407L12.2036 2.8853L12.7025 0.889792C12.7025 0.889784 12.7025 0.889775 12.7025 0.889767C12.8186 0.425888 13.2356 0.1 13.7143 0.1H18.2857C18.7644 0.1 19.1814 0.4259 19.2975 0.889792L19.7964 2.8853L19.8102 2.9407L19.865 2.95693C20.7751 3.2267 21.6531 3.59064 22.4885 4.04542L22.5387 4.07276L22.5877 4.04334L24.3526 2.98427C24.7641 2.73829 25.2887 2.80395 25.6269 3.14105C25.6269 3.14108 25.6269 3.1411 25.6269 3.14113L28.859 6.37317L28.859 6.37322C29.1976 6.71128 29.2623 7.23675 29.0158 7.64718L29.0158 7.64721L27.9567 9.41227L27.9272 9.46131L27.9546 9.51154C28.4094 10.3469 28.7733 11.2249 29.0431 12.135ZM12.1066 2.86105C11.1897 3.13281 10.3052 3.49944 9.46373 3.95759L19.3945 0.865513C19.2673 0.357143 18.8103 0 18.2857 0H13.7143C13.1897 0 12.7327 0.357143 12.6055 0.865513L12.1066 2.86105ZM22.5363 3.95759C21.6948 3.49944 20.8103 3.13281 19.8934 2.86105L25.6975 3.07031C25.327 2.70089 24.7522 2.62891 24.3013 2.89844L22.5363 3.95759Z" fill="white" stroke="#CD7E30" stroke-width="0.2"/>
<path d="M6.81008 15.6203L6.96961 15.7799L6.98067 15.5545C7.21518 10.7758 11.1654 6.95718 16.0008 6.95718C20.9869 6.95718 25.0437 11.014 25.0437 16C25.0437 16.5759 24.5767 17.0429 24.0008 17.0429C23.4249 17.0429 22.958 16.5759 22.958 16C22.958 12.1636 19.8373 9.04289 16.0008 9.04289C12.3348 9.04289 9.33 11.8941 9.06921 15.4943L9.04981 15.7621L9.23966 15.5723L9.54923 15.2627C9.9566 14.8553 10.6165 14.8553 11.0239 15.2627C11.4313 15.6701 11.4313 16.33 11.0239 16.7374L8.73816 19.0231C8.53444 19.2268 8.26779 19.3286 8.00084 19.3286C7.73388 19.3286 7.46723 19.2268 7.26351 19.0231L4.9778 16.7374C4.57042 16.33 4.57042 15.6701 4.9778 15.2627C5.38517 14.8553 6.04507 14.8553 6.45245 15.2627L6.81008 15.6203Z" fill="white" stroke="#CD7E30" stroke-width="0.2"/>
<path d="M27.7086 20.6546L27.9835 20.4714H27.6532H15.7737H15.4434L15.7182 20.6546L20.1982 23.6412C21.0989 24.2417 22.328 24.2417 23.2287 23.6412L27.7086 20.6546ZM13.7689 21.8617L13.6134 21.758V21.9449V28.5714C13.6134 29.2566 14.1711 29.8142 14.8563 29.8142H28.5706C29.2558 29.8142 29.8134 29.2566 29.8134 28.5714V21.9449V21.758L29.658 21.8617L24.3857 25.3765L24.3856 25.3766C23.5924 25.9058 22.668 26.1856 21.7134 26.1856C20.7588 26.1856 19.8345 25.9058 19.0413 25.3766L19.0412 25.3765L13.7689 21.8617ZM14.8563 18.3856H28.5706C30.406 18.3856 31.8992 19.8788 31.8992 21.7142V28.5714C31.8992 30.4068 30.406 31.8999 28.5706 31.8999H14.8563C13.0209 31.8999 11.5277 30.4068 11.5277 28.5714V21.7142C11.5277 19.8788 13.0209 18.3856 14.8563 18.3856Z" fill="white" stroke="#CD7E30" stroke-width="0.2"/>
</g>
<defs>
<clipPath id="clip0_1510_3063">
<rect width="32" height="32" fill="white"/>
</clipPath>
</defs>
</svg>
