<svg width="78" height="24" viewBox="0 0 78 24" fill="none" xmlns="http://www.w3.org/2000/svg">
<g clip-path="url(#clip0_83_10854)">
<g clip-path="url(#clip1_83_10854)">
<g clip-path="url(#clip2_83_10854)">
<path fill-rule="evenodd" clip-rule="evenodd" d="M42.0328 3.36617H45.7969V0H42.0328V3.36617ZM9.52011 0.93132C9.52011 0.811148 9.52011 0.751038 9.53015 0.701124C9.57073 0.503895 9.72476 0.349733 9.92199 0.309349C9.97195 0.299139 10.0319 0.299136 10.1522 0.299136C11.4342 0.299136 12.0749 0.299139 12.6075 0.40816C14.7113 0.838945 16.3557 2.48315 16.7864 4.58711C16.8955 5.11957 16.8955 5.7605 16.8955 7.04238V8.30672C16.8955 9.5886 16.8955 10.2295 16.7864 10.762C16.3557 12.8659 14.7113 14.5101 12.6075 14.941C12.0749 15.0499 11.4342 15.0499 10.1522 15.0499C10.0319 15.0499 9.97195 15.0499 9.92199 15.0398C9.72476 14.9993 9.57073 14.8452 9.53015 14.648C9.52011 14.598 9.52011 14.538 9.52011 14.4178V0.93132ZM0.133301 12.0708C0.133301 10.789 0.133301 10.148 0.242321 9.61557C0.673105 7.51161 2.31731 5.8674 4.4213 5.43659C4.95375 5.32757 5.59459 5.32757 6.87658 5.32757C6.9968 5.32757 7.0568 5.32757 7.10676 5.33781C7.30399 5.37819 7.45802 5.53233 7.4986 5.72958C7.50863 5.7795 7.50863 5.83958 7.50863 5.95973V17.023C7.50863 18.3047 7.50864 18.9457 7.39977 19.4781C6.96887 21.5822 5.32471 23.2264 3.22073 23.6571C2.68827 23.7661 2.04734 23.7661 0.765482 23.7661C0.645312 23.7661 0.585227 23.7661 0.535308 23.7559C0.338057 23.7155 0.183917 23.5615 0.143533 23.3643C0.133301 23.3143 0.133301 23.2541 0.133301 23.1341V12.0708ZM29.5968 23.8547H25.8065V5.52984H29.5968V7.6734C30.355 6.36634 31.9496 5.21615 33.9625 5.21615C37.3084 5.21615 39.9226 7.69954 39.9226 12.2219V12.4311C39.9226 16.9535 37.3608 19.4891 33.9625 19.4891C31.8451 19.4891 30.3026 18.4436 29.5968 17.1104V23.8547ZM29.4662 12.4572C29.4662 15.202 30.7732 16.5352 32.8385 16.5352C34.9297 16.5352 36.0799 15.1237 36.0799 12.4572V12.2481C36.0799 9.47714 34.7207 8.1178 32.8123 8.1178C30.8256 8.1178 29.4662 9.50327 29.4662 12.2481V12.4572ZM42.0328 19.2015H45.7969V5.52978H42.0328V19.2015ZM52.5479 23.8547H48.7576V5.52984H52.5479V7.6734C53.3061 6.36634 54.9007 5.21615 56.9136 5.21615C60.2595 5.21615 62.8736 7.69954 62.8736 12.2219V12.4311C62.8736 16.9535 60.3118 19.4891 56.9136 19.4891C54.796 19.4891 53.2537 18.4436 52.5479 17.1104V23.8547ZM52.4172 12.4572C52.4172 15.202 53.7243 16.5352 55.7893 16.5352C57.8807 16.5352 59.0309 15.1237 59.0309 12.4572V12.2481C59.0309 9.47714 57.6715 8.1178 55.7633 8.1178C53.7767 8.1178 52.4172 9.50327 52.4172 12.2481V12.4572ZM71.1791 19.4891C74.9173 19.4891 77.2701 17.8423 77.7143 14.8882H74.133C73.8978 16.0385 73.0351 16.7966 71.2836 16.7966C69.2186 16.7966 67.9898 15.4895 67.8853 13.2153H77.7405V12.1697C77.7405 7.28128 74.6036 5.21615 71.0746 5.21615C67.1012 5.21615 64.0426 8.01323 64.0426 12.3265V12.5356C64.0426 16.9011 67.0488 19.4891 71.1791 19.4891ZM67.9377 10.8887C68.2252 8.9543 69.3755 7.83025 71.0746 7.83025C72.8782 7.83025 73.9239 8.82362 74.0546 10.8887H67.9377Z" fill="#C0C0C0"/>
</g>
</g>
</g>
<defs>
<clipPath id="clip0_83_10854">
<rect width="77.6722" height="24" fill="white" transform="translate(0.133301)"/>
</clipPath>
<clipPath id="clip1_83_10854">
<rect width="77.67" height="24" fill="white" transform="translate(0.133301)"/>
</clipPath>
<clipPath id="clip2_83_10854">
<rect width="77.67" height="23.9992" fill="white" transform="translate(0.133301)"/>
</clipPath>
</defs>
</svg>
