<svg width="32" height="32" viewBox="0 0 32 32" fill="none" xmlns="http://www.w3.org/2000/svg">
<g clip-path="url(#clip0_1510_3046)">
<path d="M31.4028 12.6264L29.4261 11.8562C29.1672 11.0147 28.8319 10.2029 28.4251 9.43319L29.2769 7.49394C29.4322 7.14012 29.3547 6.72725 29.0814 6.454L25.5459 2.91844C25.2728 2.64519 24.8599 2.56763 24.506 2.723L22.5667 3.57481C21.7971 3.168 20.9853 2.83269 20.1436 2.57375L19.3736 0.597188C19.2332 0.237063 18.8864 0 18.5 0H13.5C13.1136 0 12.7667 0.237063 12.6264 0.597188L11.8563 2.57387C11.0146 2.83281 10.2029 3.16813 9.43325 3.57494L7.49394 2.72312C7.14006 2.56763 6.72713 2.64531 6.454 2.91856L2.9185 6.45412C2.64525 6.72738 2.56769 7.14025 2.72306 7.49406L3.57488 9.43331C3.16806 10.2031 2.83275 11.0148 2.57381 11.8564L0.597188 12.6264C0.237125 12.7667 0 13.1136 0 13.5V18.5C0 18.8864 0.237125 19.2332 0.597188 19.3736L2.57387 20.1437C2.83281 20.9852 3.16813 21.797 3.57494 22.5667L2.72312 24.5061C2.56775 24.8599 2.64531 25.2727 2.91856 25.546L6.45406 29.0815C6.72738 29.3548 7.14019 29.4324 7.494 29.2769L9.43331 28.4251C10.2029 28.8319 11.0147 29.1672 11.8564 29.4262L12.6265 31.4029C12.7668 31.7629 13.1136 32 13.5 32H18.5C18.8864 32 19.2332 31.7629 19.3736 31.4028L20.1437 29.4261C20.9854 29.1672 21.7971 28.8319 22.5667 28.4251L24.5061 29.2769C24.86 29.4323 25.2728 29.3547 25.546 29.0814L29.0815 25.5459C29.3547 25.2727 29.4323 24.8598 29.2769 24.506L28.4251 22.5667C28.8319 21.7969 29.1672 20.9852 29.4262 20.1437L31.4029 19.3735C31.7629 19.2333 32 18.8864 32 18.5V13.5C32 13.1136 31.7629 12.7667 31.4028 12.6264ZM30.125 17.8591L28.3141 18.5647C28.0369 18.6727 27.8274 18.9058 27.7496 19.1929C27.4763 20.2009 27.0786 21.1632 26.5676 22.0531C26.4194 22.3113 26.4026 22.6244 26.5222 22.8969L27.3024 24.6733L24.6733 27.3024L22.8969 26.5222C22.6244 26.4025 22.3113 26.4194 22.0531 26.5676C21.1634 27.0785 20.201 27.4762 19.1928 27.7496C18.9057 27.8275 18.6726 28.0369 18.5646 28.3141L17.8591 30.125H14.1409L13.4353 28.3141C13.3273 28.0369 13.0942 27.8274 12.8071 27.7496C11.7989 27.4761 10.8366 27.0784 9.94687 26.5676C9.68881 26.4194 9.37569 26.4024 9.103 26.5222L7.32662 27.3024L4.6975 24.6733L5.47769 22.8969C5.59737 22.6244 5.58056 22.3113 5.43231 22.0531C4.92131 21.1632 4.52369 20.2009 4.25037 19.1929C4.1725 18.9058 3.963 18.6727 3.68587 18.5647L1.875 17.8591V14.1409L3.68594 13.4353C3.96312 13.3273 4.17256 13.0942 4.25044 12.8071C4.52375 11.7991 4.92144 10.8368 5.43237 9.94681C5.58063 9.68869 5.59744 9.3755 5.47775 9.10294L4.69756 7.32669L7.32675 4.6975L9.10306 5.47769C9.37563 5.59744 9.68875 5.58056 9.94694 5.43231C10.8367 4.92137 11.7991 4.52369 12.8072 4.25031C13.0942 4.17244 13.3274 3.963 13.4354 3.68581L14.1409 1.875H17.8591L18.5647 3.68594C18.6727 3.96312 18.9058 4.17256 19.1929 4.25044C20.201 4.52381 21.1633 4.9215 22.0531 5.43244C22.3113 5.58069 22.6244 5.59756 22.897 5.47781L24.6733 4.69763L27.3025 7.32681L26.5223 9.10306C26.4026 9.37563 26.4194 9.68881 26.5677 9.94694C27.0786 10.8369 27.4763 11.7992 27.7496 12.8073C27.8275 13.0943 28.037 13.3274 28.3141 13.4354L30.125 14.1409V17.8591Z" fill="white"/>
<path d="M16 5.6875C10.3137 5.6875 5.6875 10.3137 5.6875 16C5.6875 21.6863 10.3137 26.3125 16 26.3125C21.6863 26.3125 26.3125 21.6863 26.3125 16C26.3125 10.3137 21.6863 5.6875 16 5.6875ZM20.5312 23.1146C19.2214 23.9518 17.6664 24.4375 16 24.4375C14.3336 24.4375 12.7786 23.9518 11.4688 23.1146V22.4062C11.4688 19.9077 13.5014 17.875 16 17.875C18.4986 17.875 20.5312 19.9077 20.5312 22.4062V23.1146ZM13.8125 13.8125C13.8125 12.6063 14.7938 11.625 16 11.625C17.2062 11.625 18.1875 12.6063 18.1875 13.8125C18.1875 15.0187 17.2062 16 16 16C14.7938 16 13.8125 15.0187 13.8125 13.8125ZM22.349 21.5508C22.0631 19.418 20.7239 17.6143 18.8733 16.6817C19.6077 15.9462 20.0625 14.9315 20.0625 13.8125C20.0625 11.5724 18.2401 9.75 16 9.75C13.7599 9.75 11.9375 11.5724 11.9375 13.8125C11.9375 14.9315 12.3923 15.9462 13.1267 16.6816C11.2761 17.6143 9.93687 19.4179 9.651 21.5508C8.35138 20.0661 7.5625 18.1236 7.5625 16C7.5625 11.3476 11.3476 7.5625 16 7.5625C20.6524 7.5625 24.4375 11.3476 24.4375 16C24.4375 18.1236 23.6486 20.0661 22.349 21.5508Z" fill="white"/>
</g>
<defs>
<clipPath id="clip0_1510_3046">
<rect width="32" height="32" fill="white"/>
</clipPath>
</defs>
</svg>
