<svg width="91" height="24" viewBox="0 0 91 24" fill="none" xmlns="http://www.w3.org/2000/svg">
<g clip-path="url(#clip0_83_10858)">
<g clip-path="url(#clip1_83_10858)">
<g clip-path="url(#clip2_83_10858)">
<mask id="mask0_83_10858" style="mask-type:luminance" maskUnits="userSpaceOnUse" x="0" y="0" width="91" height="24">
<path d="M90.5991 0H0.599121V24H90.5991V0Z" fill="white"/>
</mask>
<g mask="url(#mask0_83_10858)">
<path d="M6.82653 8.11141C4.68001 8.11141 3.62629 10.0031 3.62629 12.5291V18.8592H0.599121V5.50116H3.57326V8.96675H3.6249C4.25993 6.83599 5.52578 5.11426 7.4783 5.11426C8.85163 5.11426 9.43082 5.59374 9.43082 5.59374L8.06448 8.34493C8.06448 8.34493 7.62903 8.11141 6.82653 8.11141ZM43.422 9.94507V18.8578H40.473V11.0298C40.473 8.78297 39.7682 7.59323 37.9677 7.59323C36.1032 7.59323 35.2016 9.09803 35.2016 11.9846V18.8563H32.2791V11.0298C32.2791 8.87003 31.5826 7.59323 29.8004 7.59323C27.7656 7.59323 26.9826 9.37577 26.9826 11.9846V18.8563H24.0085V5.50116H26.9826V8.52595H27.0091C27.4724 6.43251 28.737 5.14051 30.8708 5.14051C32.9866 5.14051 34.3656 6.27774 34.889 8.29381C35.3872 6.35374 36.7131 5.14051 38.7507 5.14051C41.5936 5.14051 43.422 6.92305 43.422 9.94507ZM15.3805 5.11426C12.6436 5.11426 10.853 6.39934 10.0365 8.71941L12.5557 9.63555C13.0148 8.23577 13.9723 7.43847 15.4335 7.43847C17.0776 7.43847 18.0434 8.16253 18.0434 9.27352C18.0434 10.4094 17.2744 10.647 15.5382 10.9275C13.6066 11.2385 9.01352 11.3407 9.01352 15.2153C9.01352 17.4856 10.9116 19.1935 13.7629 19.1935C15.9067 19.1935 17.3665 18.3175 18.042 16.687H18.0685V18.8578H21.0175V10.6429C21.0162 7.04879 19.2074 5.11426 15.3805 5.11426ZM18.1202 12.5705C18.1202 15.3714 16.7343 17.1706 14.5194 17.1706C12.9535 17.1706 12.0142 16.2917 12.0142 15.0246C12.0142 13.8363 12.98 13.0114 14.832 12.6714C16.7272 12.3232 17.682 11.8934 18.1202 10.8626V12.5705ZM53.9118 5.14051C51.6564 5.14051 50.1657 6.37999 49.5279 8.24268V5.50116H46.3962V23.9995H49.5014V16.1177H49.5279C50.2188 18.1351 51.6577 19.2447 53.9118 19.2447C57.486 19.2447 60.0442 16.3001 60.0442 12.1395C60.0428 8.00777 57.486 5.14051 53.9118 5.14051ZM53.1414 16.7657C50.6654 16.7657 49.2921 14.9693 49.2921 12.1794C49.2921 9.38958 50.8287 7.59323 53.1414 7.59323C55.4526 7.59323 56.9905 9.47664 56.9905 12.1794C56.9905 14.8837 55.4539 16.7657 53.1414 16.7657Z" fill="#C0C0C0"/>
<path d="M90.8059 18.7976V18.881L78.6856 18.8852V18.7976C80.4334 17.8106 81.6398 16.8053 82.7253 15.7547H87.7021L90.8059 18.7976ZM87.8028 3.01339L84.7306 0H84.6414C84.6414 0 84.6932 5.61587 79.5351 10.7234C74.4878 15.7222 68.5522 15.7334 68.5522 15.7334V15.821L71.682 18.8867C71.682 18.8867 77.5311 18.9445 82.698 13.8766C87.846 8.82554 87.8028 3.01339 87.8028 3.01339Z" fill="#C0C0C0"/>
</g>
</g>
</g>
</g>
<defs>
<clipPath id="clip0_83_10858">
<rect width="90.0025" height="24" fill="white" transform="translate(0.599121)"/>
</clipPath>
<clipPath id="clip1_83_10858">
<rect width="90" height="24" fill="white" transform="translate(0.599121)"/>
</clipPath>
<clipPath id="clip2_83_10858">
<rect width="90" height="24" fill="white" transform="translate(0.599121)"/>
</clipPath>
</defs>
</svg>
