<svg width="26" height="27" viewBox="0 0 26 27" fill="none" xmlns="http://www.w3.org/2000/svg">
<g clip-path="url(#clip0_393_897)">
<path d="M19.8106 25.7249C18.058 25.7249 16.6323 24.2992 16.6323 22.5466V10.6207C14.9387 9.541 13.9081 7.68396 13.9081 5.65075C13.9081 3.42593 15.1412 1.41361 17.1263 0.397459C17.4087 0.253981 17.7447 0.265786 18.0144 0.431058C18.2841 0.597238 18.4485 0.889643 18.4485 1.20657V5.13223L19.8106 5.67708L21.1728 5.13223V1.20657C21.1728 0.889643 21.3371 0.597238 21.6068 0.431058C21.8765 0.265786 22.2125 0.253981 22.4949 0.397459C24.48 1.41452 25.7132 3.42593 25.7132 5.65166C25.7132 7.68396 24.6825 9.541 22.9889 10.6216V22.5466C22.9889 24.2992 21.5632 25.7249 19.8106 25.7249ZM16.6323 3.08268C16.0539 3.79553 15.7242 4.69453 15.7242 5.65075C15.7242 7.18905 16.5787 8.58297 17.9545 9.28764C18.2578 9.44293 18.4485 9.75531 18.4485 10.0958V22.5466C18.4485 23.2976 19.0596 23.9088 19.8106 23.9088C20.5616 23.9088 21.1728 23.2976 21.1728 22.5466V10.0958C21.1728 9.75531 21.3635 9.44293 21.6668 9.28764C23.0425 8.58297 23.897 7.18996 23.897 5.65166C23.897 4.69544 23.5674 3.79643 22.9889 3.08358V5.74701C22.9889 6.11842 22.7628 6.45168 22.4187 6.59062L20.1484 7.49871C19.9314 7.58589 19.6908 7.58589 19.4737 7.49871L17.2035 6.59062C16.8584 6.45168 16.6323 6.11842 16.6323 5.74701V3.08268Z" fill="white"/>
<path d="M13.9751 25.7253H12.0255C11.082 25.7253 10.2865 24.9888 10.2147 24.049L10.1003 22.5642C9.47738 22.3754 8.87441 22.1247 8.29777 21.816L7.1663 22.7849C6.44982 23.3997 5.36737 23.357 4.70084 22.6914L3.32054 21.3102C2.65401 20.6436 2.61223 19.5603 3.2261 18.8438L4.19503 17.7132C3.88628 17.1366 3.63565 16.5336 3.44677 15.9107L1.96295 15.7972C1.02308 15.7263 0.286621 14.9309 0.286621 13.9873V12.0368C0.286621 11.0933 1.02308 10.2978 1.96386 10.226L3.44768 10.1125C3.63656 9.48868 3.88719 8.88571 4.19594 8.30998L3.2261 7.1776C2.61223 6.46202 2.65401 5.37958 3.32145 4.71123L4.69993 3.33184C5.36737 2.6644 6.45072 2.62353 7.1663 3.2374L8.29777 4.20633C8.87441 3.89758 9.47738 3.64695 10.1003 3.45807L10.2147 1.97334C10.2865 1.03529 11.082 0.298828 12.0246 0.298828H12.9999C13.5011 0.298828 13.9079 0.704744 13.9079 1.20692C13.9079 1.70909 13.5011 2.115 12.9999 2.115H12.0246L11.8611 4.24084C11.8302 4.63677 11.546 4.9664 11.1601 5.05539C10.2819 5.2579 9.44651 5.60388 8.67736 6.08607C8.34227 6.29766 7.9073 6.26588 7.6049 6.00525L5.98397 4.61679L4.60549 5.99708L5.99396 7.61711C6.25276 7.9186 6.28454 8.35357 6.07387 8.68956C5.59258 9.45962 5.24569 10.2951 5.04319 11.1723C4.95419 11.5591 4.62365 11.8434 4.22772 11.8733L2.1028 12.0368V13.9873L4.22772 14.1508C4.62365 14.1808 4.95419 14.4659 5.04319 14.8518C5.24569 15.73 5.59167 16.5654 6.07387 17.3346C6.28454 17.6706 6.25185 18.1055 5.99396 18.407L4.60549 20.027L5.98487 21.4073L7.6049 20.0189C7.9073 19.7592 8.34227 19.7274 8.67736 19.938C9.44741 20.4193 10.2829 20.7662 11.1601 20.9687C11.5469 21.0586 11.8311 21.3883 11.8611 21.7833L12.0246 23.9091H13.9742C14.0124 23.4097 14.4473 23.0364 14.9495 23.0737C15.4499 23.1118 15.824 23.5486 15.785 24.049C15.7132 24.9888 14.9177 25.7253 13.9751 25.7253Z" fill="white"/>
<path d="M6.64355 13.012C6.64355 9.8936 8.872 7.25742 11.9422 6.74344C12.4353 6.65535 12.9057 6.99407 12.9875 7.48898C13.0701 7.98389 12.7368 8.45155 12.2419 8.53419C10.0507 8.90197 8.45973 10.7853 8.45973 13.012C8.45973 16.1476 11.5745 18.3343 14.514 17.2945C14.9843 17.1265 15.5056 17.3735 15.6736 17.8466C15.8407 18.3197 15.5937 18.8383 15.1206 19.0054C10.986 20.4683 6.64355 17.3853 6.64355 13.012Z" fill="white"/>
</g>
<defs>
<clipPath id="clip0_393_897">
<rect width="26" height="26" fill="white" transform="translate(0 0.0117188)"/>
</clipPath>
</defs>
</svg>
