<svg width="21" height="23" viewBox="0 0 21 23" fill="none" xmlns="http://www.w3.org/2000/svg">
<path d="M16.9999 14.5573C16.3708 14.5587 15.7509 14.709 15.1909 14.9957C14.631 15.2825 14.1468 15.6976 13.7779 16.2073L8.76288 12.8643C9.07892 12.0216 9.07892 11.0929 8.76288 10.2503L13.7779 6.90727C14.3408 7.6704 15.1574 8.20779 16.0809 8.42289C17.0045 8.638 17.9745 8.51671 18.8166 8.08082C19.6588 7.64494 20.3179 6.92303 20.6755 6.04479C21.0332 5.16655 21.066 4.18956 20.7679 3.28933C20.4699 2.38911 19.8606 1.62467 19.0495 1.13336C18.2385 0.642044 17.2788 0.456059 16.3429 0.608818C15.407 0.761578 14.5563 1.24307 13.9435 1.96678C13.3308 2.6905 12.9962 3.609 12.9999 4.55727C13.0064 4.70298 13.0211 4.84821 13.0439 4.99227L7.65288 8.58627C7.07837 8.06836 6.36602 7.72813 5.60209 7.60679C4.83817 7.48545 4.05546 7.5882 3.34874 7.90261C2.64202 8.21701 2.04162 8.72957 1.62025 9.37822C1.19888 10.0269 0.974609 10.7838 0.974609 11.5573C0.974609 12.3308 1.19888 13.0877 1.62025 13.7363C2.04162 14.385 2.64202 14.8975 3.34874 15.2119C4.05546 15.5263 4.83817 15.6291 5.60209 15.5077C6.36602 15.3864 7.07837 15.0462 7.65288 14.5283L13.0439 18.1223C13.0211 18.2663 13.0064 18.4116 12.9999 18.5573C12.9999 19.3484 13.2345 20.1217 13.674 20.7795C14.1135 21.4373 14.7382 21.95 15.4692 22.2528C16.2001 22.5555 17.0043 22.6347 17.7802 22.4804C18.5562 22.3261 19.2689 21.9451 19.8283 21.3857C20.3877 20.8263 20.7687 20.1136 20.923 19.3376C21.0774 18.5617 20.9982 17.7574 20.6954 17.0265C20.3927 16.2956 19.88 15.6709 19.2222 15.2314C18.5644 14.7919 17.791 14.5573 16.9999 14.5573ZM16.9999 2.55727C17.3954 2.55727 17.7821 2.67457 18.111 2.89433C18.4399 3.11409 18.6963 3.42645 18.8476 3.7919C18.999 4.15735 19.0386 4.55949 18.9615 4.94745C18.8843 5.33541 18.6938 5.69178 18.4141 5.97148C18.1344 6.25119 17.778 6.44167 17.3901 6.51884C17.0021 6.59601 16.6 6.5564 16.2345 6.40503C15.8691 6.25365 15.5567 5.99731 15.3369 5.66841C15.1172 5.33951 14.9999 4.95283 14.9999 4.55727C14.9999 4.02683 15.2106 3.51813 15.5857 3.14305C15.9607 2.76798 16.4695 2.55727 16.9999 2.55727ZM4.99988 13.5573C4.60432 13.5573 4.21764 13.44 3.88874 13.2202C3.55985 13.0004 3.3035 12.6881 3.15213 12.3226C3.00075 11.9572 2.96114 11.555 3.03831 11.1671C3.11548 10.7791 3.30597 10.4228 3.58567 10.1431C3.86538 9.86335 4.22174 9.67287 4.6097 9.5957C4.99767 9.51853 5.3998 9.55813 5.76525 9.70951C6.1307 9.86088 6.44306 10.1172 6.66282 10.4461C6.88259 10.775 6.99988 11.1617 6.99988 11.5573C6.99988 12.0877 6.78917 12.5964 6.4141 12.9715C6.03903 13.3466 5.53032 13.5573 4.99988 13.5573ZM16.9999 20.5573C16.6043 20.5573 16.2176 20.44 15.8887 20.2202C15.5598 20.0004 15.3035 19.6881 15.1521 19.3226C15.0008 18.9572 14.9611 18.555 15.0383 18.1671C15.1155 17.7791 15.306 17.4228 15.5857 17.1431C15.8654 16.8633 16.2217 16.6729 16.6097 16.5957C16.9977 16.5185 17.3998 16.5581 17.7653 16.7095C18.1307 16.8609 18.4431 17.1172 18.6628 17.4461C18.8826 17.775 18.9999 18.1617 18.9999 18.5573C18.9999 19.0877 18.7892 19.5964 18.4141 19.9715C18.039 20.3466 17.5303 20.5573 16.9999 20.5573Z" fill="#F79533"/>
</svg>
