<svg width="18" height="18" viewBox="0 0 18 18" fill="none" xmlns="http://www.w3.org/2000/svg">
<path fill-rule="evenodd" clip-rule="evenodd" d="M7.15234 2.67188C7.53919 2.67188 7.89615 2.85595 8.10381 3.15503L8.98848 4.61857H14.6625C15.2892 4.61857 15.7973 5.09401 15.7973 5.68048V14.2644C15.7973 14.8509 15.2892 15.3263 14.6625 15.3263H3.31449C2.68775 15.3263 2.17969 14.8509 2.17969 14.2644V3.73379C2.17969 3.14731 2.68775 2.67188 3.31449 2.67188H7.15234ZM7.15234 3.6453H3.31449C3.2109 3.6453 3.15237 3.70006 3.15237 3.73379V14.2644C3.15237 14.2982 3.2109 14.3529 3.31449 14.3529H14.6625C14.7661 14.3529 14.8246 14.2982 14.8246 14.2644V7.538L9.28121 7.53898L7.2163 3.71073L7.27449 3.68059C7.24501 3.65998 7.20212 3.6453 7.15234 3.6453ZM9.86151 6.56556L9.33573 5.59116L14.6625 5.59199C14.7661 5.59199 14.8246 5.64676 14.8246 5.68048V6.56458L9.86151 6.56556Z" fill="black" fill-opacity="0.85"/>
<mask id="mask0_875_12561" style="mask-type:luminance" maskUnits="userSpaceOnUse" x="2" y="2" width="14" height="14">
<path fill-rule="evenodd" clip-rule="evenodd" d="M7.15234 2.67188C7.53919 2.67188 7.89615 2.85595 8.10381 3.15503L8.98848 4.61857H14.6625C15.2892 4.61857 15.7973 5.09401 15.7973 5.68048V14.2644C15.7973 14.8509 15.2892 15.3263 14.6625 15.3263H3.31449C2.68775 15.3263 2.17969 14.8509 2.17969 14.2644V3.73379C2.17969 3.14731 2.68775 2.67188 3.31449 2.67188H7.15234ZM7.15234 3.6453H3.31449C3.2109 3.6453 3.15237 3.70006 3.15237 3.73379V14.2644C3.15237 14.2982 3.2109 14.3529 3.31449 14.3529H14.6625C14.7661 14.3529 14.8246 14.2982 14.8246 14.2644V7.538L9.28121 7.53898L7.2163 3.71073L7.27449 3.68059C7.24501 3.65998 7.20212 3.6453 7.15234 3.6453ZM9.86151 6.56556L9.33573 5.59116L14.6625 5.59199C14.7661 5.59199 14.8246 5.64676 14.8246 5.68048V6.56458L9.86151 6.56556Z" fill="white"/>
</mask>
<g mask="url(#mask0_875_12561)">
<rect x="-0.275391" y="-0.254395" width="18.4836" height="18.4976" fill="#F79533"/>
</g>
</svg>
