<svg width="28" height="28" viewBox="0 0 28 28" fill="none" xmlns="http://www.w3.org/2000/svg">
<g clip-path="url(#clip0_223_273)">
<path opacity="0.97" fill-rule="evenodd" clip-rule="evenodd" d="M5.87891 -0.0273438C6.35288 -0.0273438 6.8268 -0.0273438 7.30078 -0.0273438C8.3912 0.194626 9.31175 0.72327 10.0625 1.55859C10.8111 2.67279 11.4308 3.85768 11.9219 5.11328C12.4014 6.54473 12.1279 7.80254 11.1016 8.88672C10.2887 9.68127 9.49577 10.4925 8.72266 11.3203C10.1339 15.2016 12.7771 17.8539 16.6523 19.2773C17.5692 18.4061 18.4624 17.5037 19.332 16.5703C20.3822 15.7415 21.5488 15.5409 22.832 15.9688C24.0629 16.4747 25.2295 17.0945 26.332 17.8281C27.2266 18.5696 27.7735 19.5085 27.9727 20.6445C27.9727 21.1185 27.9727 21.5924 27.9727 22.0664C27.6034 23.7245 26.7101 25.0279 25.293 25.9766C23.4871 27.1831 21.5001 27.8485 19.332 27.9727C18.4388 27.9727 17.5456 27.9727 16.6523 27.9727C14.8025 27.7542 13.0525 27.1982 11.4023 26.3047C7.3908 23.9885 4.19157 20.8439 1.80469 16.8711C0.835997 15.1408 0.225321 13.2997 -0.0273438 11.3477C-0.0273438 10.418 -0.0273438 9.48828 -0.0273438 8.55859C0.0997566 6.53805 0.692202 4.66047 1.75 2.92578C2.46522 1.82761 3.40402 0.979956 4.56641 0.382812C4.99837 0.205267 5.43587 0.068548 5.87891 -0.0273438ZM6.58984 2.16016C7.23751 2.2151 7.79352 2.47031 8.25781 2.92578C8.91669 3.89717 9.44535 4.93624 9.84375 6.04297C9.90538 6.38504 9.86891 6.71316 9.73438 7.02734C8.52698 8.24365 7.3512 9.48325 6.20703 10.7461C7.81834 16.5683 11.5371 20.2688 17.3633 21.8477C18.5748 20.627 19.778 19.3965 20.9727 18.1562C21.2684 18.0226 21.5783 17.9862 21.9023 18.0469C22.9579 18.4561 23.9605 18.9666 24.9102 19.5781C25.7547 20.3584 25.9644 21.279 25.5391 22.3398C25.0405 23.2577 24.3387 23.9777 23.4336 24.5C22.4305 25.0714 21.355 25.4359 20.207 25.5938C17.4455 26.0723 14.8387 25.6348 12.3867 24.2812C8.92429 22.2043 6.10788 19.4608 3.9375 16.0508C2.08251 12.9138 1.68146 9.59607 2.73438 6.09766C3.17707 4.67197 3.98827 3.51442 5.16797 2.625C5.6117 2.35246 6.08568 2.19751 6.58984 2.16016Z" fill="white"/>
<path opacity="0.971" fill-rule="evenodd" clip-rule="evenodd" d="M14.8473 -0.0273438C15.2484 -0.0273438 15.6494 -0.0273438 16.0505 -0.0273438C20.4126 0.516709 23.7759 2.63129 26.1403 6.31641C27.1415 8.0529 27.7522 9.91227 27.9723 11.8945C27.9723 12.2956 27.9723 12.6966 27.9723 13.0977C27.2249 13.0977 26.4776 13.0977 25.7302 13.0977C25.6124 9.02366 23.8441 5.89734 20.4255 3.71875C18.7209 2.7229 16.8798 2.21249 14.902 2.1875C14.8479 1.45355 14.8297 0.715269 14.8473 -0.0273438Z" fill="white"/>
<path opacity="0.971" fill-rule="evenodd" clip-rule="evenodd" d="M14.8473 4.34766C18.5988 4.48304 21.2876 6.23306 22.9137 9.59766C23.3908 10.716 23.6187 11.8827 23.5973 13.0977C22.8499 13.0977 22.1026 13.0977 21.3552 13.0977C21.2778 10.5814 20.1658 8.67645 18.0192 7.38281C17.046 6.86153 16.0069 6.58809 14.902 6.5625C14.8479 5.82854 14.8297 5.09027 14.8473 4.34766Z" fill="white"/>
<path opacity="0.972" fill-rule="evenodd" clip-rule="evenodd" d="M14.8477 8.72266C16.7657 8.77417 18.1238 9.66744 18.9219 11.4023C19.1454 11.9459 19.2457 12.5111 19.2227 13.0977C18.4752 13.0977 17.7279 13.0977 16.9805 13.0977C16.9501 12.1649 16.5126 11.4995 15.668 11.1016C15.4041 10.9979 15.1307 10.9524 14.8477 10.9648C14.8477 10.2174 14.8477 9.47007 14.8477 8.72266Z" fill="white"/>
</g>
<defs>
<clipPath id="clip0_223_273">
<rect width="28" height="28" fill="white"/>
</clipPath>
</defs>
</svg>
