<svg width="230" height="62" viewBox="0 0 230 62" fill="none" xmlns="http://www.w3.org/2000/svg">
<path d="M199.812 6.41256L196.454 10.0769L192.332 5.19112H186.227L196.454 17.1002L210.955 0.15268H229.883L200.575 34.8111V39.6968H205.155V36.6432L210.344 30.536V44.7353H195.385V32.9789L219.35 5.19112H213.245L196.454 24.7342L175.542 0.15268H194.775L199.812 6.41256Z" fill="white"/>
<path d="M79.0702 14.81V0.15268H123.642V14.81H105.478C101.768 14.81 98.7613 17.8177 98.7613 21.5279V39.6968H103.646V19.8484H108.836V44.5826H93.7241V21.0699C93.7241 14.9986 98.6446 10.0769 104.714 10.0769H118.605V5.19112H83.8022V10.0769H94.3346C91.587 11.2983 90.8238 12.6724 90.0606 14.81H79.0702Z" fill="white"/>
<path d="M130.053 14.6573V0H161.575C168.361 0 173.862 5.50276 173.862 12.2907C173.862 19.0787 168.361 24.5815 161.575 24.5815H134.633V39.6968H139.823V29.7726H152.034L161.04 39.6968H167.146L157.987 29.7726H165.009L178.289 44.4299H158.903L149.745 34.6584H144.555V44.4299H130.053V19.6957H160.645C162.9 19.6957 165.268 19.2069 166.719 17.481C169.408 14.2836 168.986 10.2471 166.676 7.32767C165.269 5.55003 162.893 5.03844 160.626 5.03844H134.633V9.92421H160.469C161.984 9.92421 163.739 10.5374 163.97 12.0354C164.006 12.266 164.005 12.4907 163.966 12.7161C163.725 14.1261 162.048 14.6573 160.618 14.6573H130.053Z" fill="white"/>
<path d="M85.1035 54.1809V55.4341H83.0406V61.9222H81.4879V55.4341H79.425V54.1809H85.1035Z" fill="white"/>
<path d="M87.7891 55.4341V57.375H90.3954V58.6061H87.7891V60.6578H90.7281V61.9222H86.2364V54.1698H90.7281V55.4341H87.7891Z" fill="white"/>
<path d="M91.7621 58.0404C91.7621 57.2789 91.9321 56.5986 92.2722 55.9997C92.6197 55.3935 93.0893 54.9239 93.6808 54.5912C94.2797 54.2511 94.9488 54.0811 95.6882 54.0811C96.5533 54.0811 97.3111 54.3029 97.9618 54.7465C98.6124 55.1901 99.0671 55.8038 99.3259 56.5876H97.5403C97.3629 56.2179 97.1115 55.9406 96.7862 55.7558C96.4682 55.5709 96.0985 55.4785 95.6771 55.4785C95.2261 55.4785 94.8231 55.5857 94.4682 55.8001C94.1207 56.0071 93.8471 56.3029 93.6475 56.6874C93.4552 57.0718 93.3591 57.5229 93.3591 58.0404C93.3591 58.5506 93.4552 59.0016 93.6475 59.3935C93.8471 59.778 94.1207 60.0774 94.4682 60.2918C94.8231 60.4989 95.2261 60.6024 95.6771 60.6024C96.0985 60.6024 96.4682 60.51 96.7862 60.3251C97.1115 60.1329 97.3629 59.8519 97.5403 59.4822H99.3259C99.0671 60.2734 98.6124 60.8907 97.9618 61.3344C97.3185 61.7706 96.5606 61.9887 95.6882 61.9887C94.9488 61.9887 94.2797 61.8224 93.6808 61.4896C93.0893 61.1495 92.6197 60.68 92.2722 60.0811C91.9321 59.4822 91.7621 58.802 91.7621 58.0404Z" fill="white"/>
<path d="M107.074 54.1809V61.9222H105.521V58.6282H102.205V61.9222H100.652V54.1809H102.205V57.3639H105.521V54.1809H107.074Z" fill="white"/>
<path d="M115.237 61.9222L113.529 58.9055H112.797V61.9222H111.245V54.1809H114.15C114.749 54.1809 115.259 54.2881 115.681 54.5025C116.102 54.7095 116.417 54.9942 116.624 55.3565C116.838 55.7114 116.945 56.1107 116.945 56.5543C116.945 57.0645 116.797 57.5266 116.502 57.9406C116.206 58.3473 115.766 58.6282 115.182 58.7835L117.034 61.9222H115.237ZM112.797 57.741H114.095C114.516 57.741 114.831 57.6412 115.038 57.4415C115.245 57.2345 115.348 56.9498 115.348 56.5876C115.348 56.2327 115.245 55.9591 115.038 55.7668C114.831 55.5672 114.516 55.4674 114.095 55.4674H112.797V57.741Z" fill="white"/>
<path d="M119.902 55.4341V57.375H122.509V58.6061H119.902V60.6578H122.841V61.9222H118.35V54.1698H122.841V55.4341H119.902Z" fill="white"/>
<path d="M129.032 54.1809V55.4341H125.805V57.4194H128.278V58.6504H125.805V61.9222H124.252V54.1809H129.032Z" fill="white"/>
<path d="M131.664 54.1809V58.9721C131.664 59.497 131.801 59.9 132.074 60.1809C132.348 60.4545 132.732 60.5913 133.228 60.5913C133.731 60.5913 134.119 60.4545 134.392 60.1809C134.666 59.9 134.803 59.497 134.803 58.9721V54.1809H136.366V58.961C136.366 59.619 136.222 60.1772 135.934 60.6357C135.653 61.0867 135.272 61.4268 134.792 61.656C134.318 61.8852 133.79 61.9998 133.206 61.9998C132.629 61.9998 132.104 61.8852 131.631 61.656C131.165 61.4268 130.795 61.0867 130.522 60.6357C130.248 60.1772 130.111 59.619 130.111 58.961V54.1809H131.664Z" fill="white"/>
<path d="M141.859 61.9222L140.151 58.9055H139.419V61.9222H137.867V54.1809H140.772C141.371 54.1809 141.881 54.2881 142.303 54.5025C142.724 54.7095 143.039 54.9942 143.246 55.3565C143.46 55.7114 143.567 56.1107 143.567 56.5543C143.567 57.0645 143.419 57.5266 143.124 57.9406C142.828 58.3473 142.388 58.6282 141.804 58.7835L143.656 61.9222H141.859ZM139.419 57.741H140.717C141.138 57.741 141.453 57.6412 141.66 57.4415C141.867 57.2345 141.97 56.9498 141.97 56.5876C141.97 56.2327 141.867 55.9591 141.66 55.7668C141.453 55.5672 141.138 55.4674 140.717 55.4674H139.419V57.741Z" fill="white"/>
<path d="M149.364 57.9517C149.8 58.033 150.158 58.2512 150.439 58.6061C150.72 58.961 150.861 59.3676 150.861 59.826C150.861 60.2401 150.757 60.6061 150.55 60.924C150.351 61.2346 150.059 61.4786 149.674 61.656C149.29 61.8335 148.835 61.9222 148.31 61.9222H144.972V54.1809H148.166C148.691 54.1809 149.142 54.2659 149.519 54.436C149.903 54.606 150.192 54.8426 150.384 55.1458C150.584 55.4489 150.683 55.7927 150.683 56.1772C150.683 56.6282 150.561 57.0053 150.317 57.3084C150.081 57.6116 149.763 57.826 149.364 57.9517ZM146.524 57.375H147.944C148.314 57.375 148.598 57.2937 148.798 57.131C148.998 56.9609 149.097 56.7206 149.097 56.4101C149.097 56.0996 148.998 55.8593 148.798 55.6892C148.598 55.5191 148.314 55.4341 147.944 55.4341H146.524V57.375ZM148.088 60.6578C148.465 60.6578 148.757 60.5691 148.964 60.3917C149.179 60.2142 149.286 59.9628 149.286 59.6375C149.286 59.3048 149.175 59.046 148.953 58.8611C148.731 58.6689 148.432 58.5728 148.055 58.5728H146.524V60.6578H148.088Z" fill="white"/>
<path d="M160.896 54.1809L158.279 59.2271V61.9222H156.726V59.2271L154.098 54.1809H155.85L157.514 57.7188L159.166 54.1809H160.896Z" fill="white"/>
<path d="M166.539 60.4471H163.455L162.945 61.9222H161.315L164.099 54.1698H165.906L168.69 61.9222H167.049L166.539 60.4471ZM166.117 59.205L164.997 55.9665L163.877 59.205H166.117Z" fill="white"/>
<path d="M173.723 61.9222L172.015 58.9055H171.283V61.9222H169.731V54.1809H172.636C173.235 54.1809 173.746 54.2881 174.167 54.5025C174.588 54.7095 174.903 54.9942 175.11 55.3565C175.324 55.7114 175.431 56.1107 175.431 56.5543C175.431 57.0645 175.283 57.5266 174.988 57.9406C174.692 58.3473 174.252 58.6282 173.668 58.7835L175.52 61.9222H173.723ZM171.283 57.741H172.581C173.002 57.741 173.317 57.6412 173.524 57.4415C173.731 57.2345 173.834 56.9498 173.834 56.5876C173.834 56.2327 173.731 55.9591 173.524 55.7668C173.317 55.5672 173.002 55.4674 172.581 55.4674H171.283V57.741Z" fill="white"/>
<path d="M179.542 54.1809C180.355 54.1809 181.069 54.3398 181.682 54.6578C182.303 54.9757 182.78 55.4304 183.113 56.0219C183.453 56.606 183.623 57.2863 183.623 58.0626C183.623 58.839 183.453 59.5192 183.113 60.1033C182.78 60.68 182.303 61.1273 181.682 61.4453C181.069 61.7632 180.355 61.9222 179.542 61.9222H176.836V54.1809H179.542ZM179.486 60.6024C180.3 60.6024 180.928 60.3806 181.372 59.9369C181.815 59.4933 182.037 58.8685 182.037 58.0626C182.037 57.2567 181.815 56.6282 181.372 56.1772C180.928 55.7188 180.3 55.4896 179.486 55.4896H178.388V60.6024H179.486Z" fill="white"/>
<path d="M193.073 56.5765C193.073 56.9905 192.974 57.3787 192.774 57.741C192.582 58.1033 192.275 58.3953 191.853 58.6172C191.439 58.839 190.914 58.9499 190.279 58.9499H188.981V61.9222H187.428V54.1809H190.279C190.877 54.1809 191.388 54.2844 191.809 54.4914C192.23 54.6984 192.545 54.9831 192.752 55.3454C192.966 55.7077 193.073 56.118 193.073 56.5765ZM190.212 57.6966C190.641 57.6966 190.959 57.6005 191.166 57.4083C191.373 57.2086 191.476 56.9314 191.476 56.5765C191.476 55.8223 191.055 55.4452 190.212 55.4452H188.981V57.6966H190.212Z" fill="white"/>
<path d="M201.13 54.1809L198.29 61.9222H196.405L193.566 54.1809H195.229L197.359 60.3362L199.477 54.1809H201.13Z" fill="white"/>
<path d="M207.329 54.1809V55.4341H205.266V61.9222H203.713V55.4341H201.65V54.1809H207.329Z" fill="white"/>
<path d="M212.657 60.6911H215.208V61.9222H211.104V54.1809H212.657V60.6911Z" fill="white"/>
<path d="M221.463 54.1809V55.4341H219.4V61.9222H217.847V55.4341H215.784V54.1809H221.463Z" fill="white"/>
<path d="M225.302 54.1809C226.115 54.1809 226.829 54.3398 227.442 54.6578C228.063 54.9757 228.54 55.4304 228.873 56.0219C229.213 56.606 229.383 57.2863 229.383 58.0626C229.383 58.839 229.213 59.5192 228.873 60.1033C228.54 60.68 228.063 61.1273 227.442 61.4453C226.829 61.7632 226.115 61.9222 225.302 61.9222H222.596V54.1809H225.302ZM225.246 60.6024C226.06 60.6024 226.688 60.3806 227.132 59.9369C227.575 59.4933 227.797 58.8685 227.797 58.0626C227.797 57.2567 227.575 56.6282 227.132 56.1772C226.688 55.7188 226.06 55.4896 225.246 55.4896H224.148V60.6024H225.246Z" fill="white"/>
<path d="M52.561 16.3485V10.0762C52.561 9.402 52.0145 8.85544 51.3403 8.85544H45.0523M52.561 16.3485H60.7524M52.561 16.3485V23.8416M52.561 23.8416H60.7524M52.561 23.8416V30.6535M52.561 30.6535H60.7524M52.561 30.6535V38.1465M52.561 38.1465H60.7524M52.561 38.1465V45.6396M52.561 45.6396V51.9119C52.561 52.5861 52.0145 53.1327 51.3403 53.1327H45.0523M52.561 45.6396H60.7524M8.19123 45.6396V51.9119C8.19123 52.5861 8.73778 53.1327 9.41199 53.1327H15.7M8.19123 45.6396H-0.00012207M8.19123 45.6396V30.6535M7.50861 38.1465H-0.00012207M8.19123 30.6535H-0.00012207M8.19123 30.6535V23.8416M8.19123 23.8416H-0.00012207M8.19123 23.8416V16.3485M8.19123 16.3485V10.0762C8.19123 9.402 8.73778 8.85544 9.41199 8.85544H15.7M8.19123 16.3485H-0.00012207M15.7 8.85544V0M15.7 8.85544H23.2087M23.2087 8.85544V0M23.2087 8.85544H30.0348M30.0348 8.85544V0M30.0348 8.85544H37.5436M37.5436 8.85544V0M37.5436 8.85544H45.0523M45.0523 8.85544V0M45.0523 53.1327V61.9881M45.0523 53.1327H37.5436M37.5436 53.1327V61.9881M37.5436 53.1327H30.0348M30.0348 53.1327V61.9881M30.0348 53.1327H23.2087M23.2087 53.1327V61.9881M23.2087 53.1327H15.7M15.7 53.1327V61.9881M15.5555 47.002H44.5141C45.1884 47.002 45.7349 46.4554 45.7349 45.7812V16.8881C45.7349 16.2139 45.1884 15.6673 44.5141 15.6673H15.5555C14.8813 15.6673 14.3347 16.2139 14.3347 16.8881V45.7812C14.3347 46.4554 14.8813 47.002 15.5555 47.002Z" stroke="white" stroke-width="2.44153"/>
</svg>
