<svg width="26" height="24" viewBox="0 0 26 24" fill="none" xmlns="http://www.w3.org/2000/svg">
<path d="M7.16454 4.27177C7.07734 4.34728 7.01397 4.43701 6.97553 4.53943C6.94836 4.61276 6.9119 4.73144 6.86812 4.89196L6.42668 6.38863L6.04247 5.04476C5.98067 4.83452 5.93207 4.6869 5.89744 4.60149C5.8523 4.48977 5.77536 4.38709 5.66893 4.29594C5.43157 4.09342 4.97023 4.09104 4.73008 4.29614C4.62288 4.3879 4.54737 4.48936 4.50598 4.59753C4.47511 4.67736 4.42753 4.8266 4.36329 5.04633L3.9808 6.38482L3.54546 4.89277C3.47573 4.65257 3.40911 4.48322 3.34157 4.3748C3.2754 4.26877 3.13509 4.14258 2.84264 4.14258C2.66907 4.14258 2.51368 4.206 2.39343 4.32646C2.27334 4.44655 2.20996 4.59316 2.20996 4.75053C2.20996 4.86093 2.24977 5.0212 2.33778 5.26652L3.12346 7.59144L3.21284 7.84387C3.25565 7.96295 3.30678 8.06898 3.36498 8.15892C3.43298 8.26393 3.51991 8.34635 3.62336 8.40363C3.72796 8.46188 3.85263 8.49143 3.9935 8.49143C4.34526 8.49143 4.51898 8.3301 4.60282 8.19477C4.69692 8.04319 4.78015 7.83092 4.85668 7.54817L5.20108 6.33491L5.55639 7.54721C5.60591 7.72494 5.65171 7.86941 5.69371 7.98017C5.74581 8.11809 5.82746 8.23616 5.93644 8.33127C6.05827 8.43745 6.2198 8.49138 6.41637 8.49138C6.6066 8.49138 6.76331 8.44086 6.88265 8.34082C6.98848 8.25185 7.06749 8.14785 7.11766 8.03151C7.15666 7.94117 7.21201 7.79471 7.28331 7.59022L8.07413 5.27104C8.15634 5.04537 8.19636 4.87489 8.19636 4.75048C8.19636 4.58641 8.13019 4.43701 8.00496 4.31874C7.75944 4.08707 7.36411 4.09855 7.16454 4.27177Z" fill="white"/>
<path d="M13.807 4.27177C13.7198 4.34728 13.6564 4.43701 13.618 4.53943C13.5908 4.61276 13.5544 4.73144 13.5106 4.89196L13.0692 6.38863L12.6849 5.04476C12.6231 4.83452 12.5746 4.6869 12.5399 4.60149C12.4948 4.48977 12.4178 4.38709 12.3114 4.29594C12.0741 4.09342 11.6127 4.09104 11.3726 4.29614C11.2654 4.3879 11.1898 4.48936 11.1485 4.59753C11.1175 4.67736 11.07 4.8266 11.0058 5.04633L10.6234 6.38482L10.188 4.89277C10.1183 4.65257 10.0517 4.48322 9.98415 4.3748C9.91798 4.26877 9.77767 4.14258 9.48522 4.14258C9.31165 4.14258 9.15626 4.206 9.03601 4.32646C8.91591 4.44655 8.85254 4.59316 8.85254 4.75053C8.85254 4.86093 8.89235 5.0212 8.98036 5.26652L9.76604 7.59144L9.85542 7.84387C9.89823 7.96295 9.94936 8.06898 10.0076 8.15892C10.0756 8.26393 10.1625 8.34635 10.2659 8.40363C10.3705 8.46188 10.4952 8.49143 10.6361 8.49143C10.9878 8.49143 11.1616 8.3301 11.2454 8.19477C11.3395 8.04319 11.4227 7.83092 11.4993 7.54817L11.8437 6.33491L12.199 7.54721C12.2485 7.72494 12.2943 7.86941 12.3363 7.98017C12.3884 8.11809 12.47 8.23616 12.579 8.33127C12.7008 8.43745 12.8624 8.49138 13.059 8.49138C13.2492 8.49138 13.4059 8.44086 13.5252 8.34082C13.6311 8.25185 13.7101 8.14785 13.7602 8.03151C13.7992 7.94117 13.8545 7.79471 13.9258 7.59022L14.7167 5.27104C14.7989 5.04537 14.8389 4.87489 14.8389 4.75048C14.8389 4.58641 14.7727 4.43701 14.6475 4.31874C14.4021 4.08707 14.0065 4.09855 13.807 4.27177Z" fill="white"/>
<path d="M20.4491 4.27177C20.3619 4.34728 20.2985 4.43701 20.2601 4.53943C20.2329 4.61276 20.1965 4.73144 20.1527 4.89196L19.7113 6.38863L19.327 5.04476C19.2652 4.83452 19.2166 4.6869 19.182 4.60149C19.1369 4.48977 19.0599 4.38709 18.9535 4.29594C18.7161 4.09342 18.2548 4.09104 18.0146 4.29614C17.9074 4.3879 17.8319 4.48936 17.7906 4.59753C17.7597 4.67736 17.7121 4.8266 17.6479 5.04633L17.2655 6.38482L16.8301 4.89277C16.7604 4.65257 16.6938 4.48322 16.6262 4.3748C16.5601 4.26877 16.4198 4.14258 16.1273 4.14258C15.9537 4.14258 15.7984 4.206 15.6781 4.32646C15.558 4.44655 15.4946 4.59316 15.4946 4.75053C15.4946 4.86093 15.5344 5.0212 15.6224 5.26652L16.4081 7.59144L16.4975 7.84387C16.5403 7.96295 16.5914 8.06898 16.6496 8.15892C16.7176 8.26393 16.8046 8.34635 16.908 8.40363C17.0126 8.46188 17.1373 8.49143 17.2782 8.49143C17.6299 8.49143 17.8037 8.3301 17.8875 8.19477C17.9816 8.04319 18.0648 7.83092 18.1413 7.54817L18.4857 6.33491L18.8411 7.54721C18.8906 7.72494 18.9364 7.86941 18.9784 7.98017C19.0305 8.11809 19.1121 8.23616 19.2211 8.33127C19.3429 8.43745 19.5045 8.49138 19.701 8.49138C19.8913 8.49138 20.048 8.44086 20.1673 8.34082C20.2731 8.25185 20.3522 8.14785 20.4023 8.03151C20.4413 7.94117 20.4966 7.79471 20.5679 7.59022L21.3587 5.27104C21.441 5.04537 21.481 4.87489 21.481 4.75048C21.481 4.58641 21.4148 4.43701 21.2896 4.31874C21.044 4.08707 20.6487 4.09855 20.4491 4.27177Z" fill="white"/>
<path d="M22.1445 7.23339C22.0048 7.37644 21.9341 7.54961 21.9341 7.74821C21.9341 7.97845 22.0108 8.16315 22.1619 8.29792C22.3064 8.42614 22.4796 8.49114 22.6769 8.49114C22.8703 8.49114 23.0411 8.42497 23.1846 8.29436C23.3336 8.15883 23.4091 7.97515 23.4091 7.74826C23.4091 7.54534 23.3354 7.3706 23.19 7.22847C22.9019 6.94709 22.423 6.94846 22.1445 7.23339Z" fill="white"/>
<path d="M23.8487 0.557617L2.15135 0.558023C0.964996 0.558023 0 1.52302 0 2.70937V9.41468C0 10.601 0.965199 11.5662 2.15155 11.5662H7.58702L9.22771 20.5324C9.28535 20.8471 9.5224 21.0985 9.83308 21.1747C10.1438 21.2508 10.4701 21.1374 10.6667 20.8847L12.1879 18.9294L15.2064 23.1272C15.3651 23.3478 15.6138 23.4653 15.866 23.4651C16.0301 23.4651 16.1959 23.4156 16.3392 23.3125L18.5678 21.7101C18.7425 21.5845 18.8603 21.3944 18.8949 21.182C18.9298 20.9696 18.8787 20.752 18.7531 20.5773L15.7344 16.3794L18.0724 15.56C18.3742 15.4542 18.5858 15.1809 18.6128 14.8621C18.6396 14.5433 18.4767 14.2385 18.1967 14.0838L13.6424 11.566H23.8486C25.035 11.566 25.9999 10.6008 25.9999 9.41448V2.70917C26 1.52282 25.035 0.557617 23.8487 0.557617ZM15.8252 14.6275L14.1737 15.2062C13.9323 15.2909 13.7449 15.4844 13.668 15.7284C13.5911 15.9723 13.6339 16.2384 13.7831 16.4461L16.9612 20.8659L16.0505 21.5206L12.8725 17.1008C12.7231 16.8932 12.4845 16.768 12.2287 16.7632C12.2236 16.763 12.2186 16.763 12.2135 16.763C11.9635 16.763 11.7268 16.8785 11.5729 17.0763L10.4983 18.4576L9.11894 10.9202L15.8252 14.6275ZM24.3767 9.41443C24.3767 9.70571 24.1398 9.9427 23.8487 9.9427H10.706L8.40506 8.67078C8.13084 8.519 7.79335 8.53886 7.53858 8.72213C7.28396 8.90524 7.15752 9.21871 7.21398 9.52721L7.29011 9.94291H2.15155C1.86027 9.94291 1.62327 9.70596 1.62327 9.41463V2.70937C1.62327 2.41809 1.86022 2.1813 2.15135 2.1813L23.8487 2.18089C24.1398 2.18089 24.3767 2.41784 24.3767 2.70917V9.41443Z" fill="white"/>
</svg>
